<svg width="64" height="64" viewBox="0 0 64 64" fill="none" xmlns="http://www.w3.org/2000/svg">
<path d="M19.7963 42.6712V43.8075C19.7963 45.3187 20.9475 46.5475 22.3625 46.5475H41.64C43.055 46.5475 44.2063 45.3175 44.2063 43.8075V42.6712C44.2063 41.6263 44.06 40.6175 43.7913 39.6688H54.7013C55.86 39.6688 56.8025 38.6675 56.8025 37.4375V36.5925C56.8025 32.5675 53.9713 29.2475 50.3575 28.8575C51.0575 28.3388 51.6325 27.6075 52.0475 26.6763C53.145 24.2175 52.8613 20.9062 51.415 19.295C50.3963 18.1588 49.1613 17.63 47.53 17.63C45.8938 17.63 44.6575 18.1588 43.6375 19.295C42.1913 20.9062 41.9075 24.2175 43.005 26.6763C43.4213 27.6088 43.9963 28.3413 44.6988 28.86C42.1438 29.1413 39.8925 30.9238 38.8563 33.47C37.685 32.8638 36.38 32.515 35.0038 32.4912C36.2088 31.8275 37.1788 30.7288 37.84 29.2463C39.2763 26.0275 38.915 21.7025 37.0338 19.605C35.7163 18.1375 34.1188 17.4538 32.0063 17.4538C29.8863 17.4538 28.2863 18.1375 26.9688 19.605C25.0875 21.7025 24.7263 26.0263 26.1625 29.245C26.825 30.7288 27.795 31.8263 29 32.49C27.6238 32.515 26.3188 32.8625 25.1475 33.4688C24.1113 30.9225 21.86 29.14 19.305 28.8587C20.0063 28.34 20.5813 27.6075 20.9975 26.6763C22.095 24.2175 21.8113 20.9062 20.365 19.295C19.3463 18.1588 18.1113 17.63 16.48 17.63C14.8438 17.63 13.6075 18.1588 12.5888 19.295C11.1425 20.9062 10.8588 24.2175 11.9563 26.6763C12.3713 27.6075 12.9463 28.3388 13.6475 28.8575C10.0338 29.2463 7.20251 32.5662 7.20251 36.5925V37.4375C7.20251 38.6675 8.14501 39.6688 9.30376 39.6688H20.2138C19.9413 40.6175 19.7963 41.6263 19.7963 42.6712ZM42.705 43.8075C42.705 44.4912 42.2275 45.0475 41.6388 45.0475H22.3613C21.7738 45.0475 21.295 44.4912 21.295 43.8075V42.6712C21.295 37.8812 24.82 33.985 29.1525 33.985H34.845C39.1775 33.985 42.7025 37.8812 42.7025 42.6712V43.8075H42.705ZM44.7525 20.2962C45.4863 19.4788 46.3163 19.13 47.5275 19.13C48.7338 19.13 49.5625 19.4788 50.2963 20.2962C51.3475 21.4675 51.5238 24.1625 50.675 26.065C50.2288 27.065 49.32 28.2575 47.525 28.2575C45.7288 28.2575 44.82 27.065 44.3725 26.065C43.525 24.1625 43.7025 21.4675 44.7525 20.2962ZM45.4063 30.3175H49.6438C52.7625 30.3175 55.3013 33.1313 55.3013 36.5913V37.4362C55.3013 37.8325 55.0263 38.1675 54.7 38.1675H43.2375C42.5263 36.6037 41.4575 35.2663 40.1475 34.2825C40.9963 31.925 43.095 30.3175 45.4063 30.3175ZM27.5313 28.6325C26.355 25.9963 26.6138 22.245 28.085 20.6063C29.125 19.4475 30.2975 18.9525 32.005 18.9525C33.6838 18.9525 34.89 19.4625 35.9163 20.6063C37.3875 22.2463 37.6463 25.9975 36.4688 28.6338C35.8375 30.0475 34.5513 31.7325 32.0013 31.7325C29.45 31.7313 28.1625 30.0462 27.5313 28.6325ZM13.7038 20.2962C14.4375 19.4788 15.2675 19.13 16.4788 19.13C17.685 19.13 18.5138 19.4788 19.2475 20.2962C20.2988 21.4675 20.475 24.1625 19.6263 26.065C19.18 27.065 18.2713 28.2575 16.4763 28.2575C14.68 28.2575 13.7713 27.065 13.3238 26.065C12.4763 24.1625 12.6525 21.4675 13.7038 20.2962ZM9.30126 38.1688C8.97501 38.1688 8.70001 37.8338 8.70001 37.4375V36.5925C8.70001 33.1337 11.2375 30.3188 14.3575 30.3188H18.595C20.9063 30.3188 23.005 31.925 23.8538 34.2837C22.5438 35.2675 21.475 36.605 20.7638 38.1688H9.30126ZM8.37501 49.2525C8.62001 49.5863 8.54751 50.0563 8.21251 50.3013C8.07876 50.3988 7.92376 50.4463 7.77001 50.4463C7.53876 50.4463 7.31126 50.34 7.16376 50.1387C2.87501 44.28 0.802511 37.0438 1.33126 29.7625C1.86501 22.4062 5.03501 15.4788 10.2563 10.2563C16.0513 4.4625 23.755 1.26375 31.95 1.25H32.0013C39.6213 1.25 46.8238 4.00625 52.4638 9.0475V3.79C52.4638 3.37625 52.8 3.04 53.2138 3.04C53.6275 3.04 53.9638 3.37625 53.9638 3.79V10.7875C53.9638 11.2013 53.6275 11.5375 53.2138 11.5375H46.2163C45.8025 11.5375 45.4663 11.2013 45.4663 10.7875C45.4663 10.3738 45.8025 10.0375 46.2163 10.0375H51.3163C39.845 -0.0612497 22.2625 0.3725 11.3175 11.3175C1.20751 21.4275 -0.0574884 37.7362 8.37501 49.2525ZM62.6688 34.2375C62.135 41.5938 58.965 48.5213 53.7438 53.7438C47.96 59.5275 40.2713 62.725 32.0938 62.75C32.0625 62.75 32.03 62.75 31.9988 62.75C24.3813 62.75 17.1788 59.995 11.5375 54.9538V60.2113C11.5375 60.625 11.2013 60.9613 10.7875 60.9613C10.3738 60.9613 10.0375 60.625 10.0375 60.2113V53.2137C10.0375 52.8 10.3738 52.4637 10.7875 52.4637H17.785C18.1988 52.4637 18.535 52.8 18.535 53.2137C18.535 53.6275 18.1988 53.9637 17.785 53.9637H12.685C18.1825 58.8025 25.0913 61.2212 31.9988 61.2225C39.4975 61.2225 46.9938 58.375 52.6838 52.6838C62.7938 42.5737 64.0588 26.265 55.6263 14.7487C55.3813 14.415 55.4538 13.945 55.7888 13.7C56.1225 13.455 56.5925 13.5275 56.8375 13.8625C61.125 19.72 63.1975 26.9562 62.6688 34.2375Z" fill="#017D03"/>
</svg>
