<svg width="70" height="70" viewBox="0 0 70 70" fill="none" xmlns="http://www.w3.org/2000/svg">
<g clip-path="url(#clip0_1506_1081)">
<path d="M32.1668 43.1156C31.3137 43.9687 29.9355 43.9687 29.0715 43.1156C28.2184 42.2515 28.2184 40.8734 29.0715 40.0203C29.9355 39.1562 32.0902 38.3906 32.9434 39.2437C33.7965 40.0969 33.0309 42.2515 32.1668 43.1156Z" fill="#FFCE54"/>
<path d="M20.2672 26.25H14.7656C13.2563 26.25 12.0312 25.025 12.0312 23.5156C12.0312 22.0063 13.2563 20.7812 14.7656 20.7812H11.4844C9.975 20.7812 8.75 19.5562 8.75 18.0469C8.75 16.5375 9.975 15.3125 11.4844 15.3125H14.7656C13.2563 15.3125 12.0312 14.0875 12.0312 12.5781C12.0312 11.0688 13.2563 9.84375 14.7656 9.84375H35.0109L31.2813 5.6L31.1828 5.46875C30.8339 5.00938 30.6359 4.44063 30.6359 3.82812C30.6359 2.31875 31.85 1.09375 33.3703 1.09375C33.8417 1.09375 34.3011 1.21406 34.6937 1.44375L34.7058 1.45469L46.4308 10.3031C47.9839 11.3641 49.3402 12.6766 50.3245 14.2297H54.6875V27.3438H50.3234C48.7933 29.9578 45.9375 31.7188 42.6672 31.7188H20.2672C18.7458 31.7188 17.5328 30.4937 17.5328 28.9844C17.5328 27.475 18.7469 26.25 20.2672 26.25Z" fill="#EAC6BB"/>
<path d="M57.9688 13.125V28.4484H57.9578H54.6875V27.3438V14.2297V13.125H57.9578H57.9688Z" fill="#017D03"/>
<path d="M68.9062 12.0312V29.5312H57.9688V28.4484V13.125V12.0312H68.9062Z" fill="#017D03"/>
<path d="M43.1044 42.2078C43.9575 43.061 43.9575 44.4391 43.1044 45.3032C42.2513 46.1563 40.8731 46.1563 40.0091 45.3032C39.1559 44.4391 38.3903 42.2844 39.2434 41.4313C40.0966 40.5782 42.2513 41.3547 43.1044 42.2078Z" fill="#FFCE54"/>
<path d="M35 49.2188C36.2031 49.2188 37.1875 51.2969 37.1875 52.5C37.1875 53.7141 36.2031 54.6875 35 54.6875C33.7859 54.6875 32.8125 53.7141 32.8125 52.5C32.8125 51.2969 33.7859 49.2188 35 49.2188Z" fill="#FFCE54"/>
<path d="M68.9062 42.6562V68.9062H1.09375V42.6562H17.4891L35 60.1562L52.5109 42.6562H68.9062Z" fill="#965353"/>
<path d="M17.4923 43.75H1.09375C0.488906 43.75 0 43.2611 0 42.6562C0 42.0514 0.488906 41.5625 1.09375 41.5625H17.4923C18.0972 41.5625 18.5861 42.0514 18.5861 42.6562C18.5861 43.2611 18.0972 43.75 17.4923 43.75Z" fill="black"/>
<path d="M68.9064 43.75H52.5078C51.903 43.75 51.4141 43.2611 51.4141 42.6562C51.4141 42.0514 51.903 41.5625 52.5078 41.5625H68.9064C69.5113 41.5625 70.0002 42.0514 70.0002 42.6562C70.0002 43.2611 69.5113 43.75 68.9064 43.75Z" fill="black"/>
<path d="M35.0034 61.2544C34.7234 61.2544 34.4434 61.1472 34.2301 60.9339L16.7192 43.4296C16.2915 43.0019 16.2915 42.3107 16.7192 41.883C17.1468 41.4553 17.8381 41.4553 18.2657 41.883L35.7767 59.3874C36.2043 59.815 36.2043 60.5063 35.7767 60.9339C35.5634 61.1472 35.2834 61.2544 35.0034 61.2544Z" fill="black"/>
<path d="M34.9964 61.2544C34.7164 61.2544 34.4364 61.1472 34.2231 60.9339C33.7954 60.5063 33.7954 59.815 34.2231 59.3874L51.734 41.883C52.1617 41.4553 52.8529 41.4553 53.2806 41.883C53.7082 42.3107 53.7082 43.0019 53.2806 43.4296L35.7696 60.9339C35.5564 61.1472 35.2764 61.2544 34.9964 61.2544Z" fill="black"/>
<path d="M68.9062 70H1.09375C0.488906 70 0 69.5111 0 68.9062C0 68.3014 0.488906 67.8125 1.09375 67.8125H68.9062C69.5111 67.8125 70 68.3014 70 68.9062C70 69.5111 69.5111 70 68.9062 70Z" fill="black"/>
<path d="M20.2616 32.8125C18.1507 32.8125 16.4346 31.0953 16.4346 28.9844C16.4346 26.8734 18.1507 25.1562 20.2616 25.1562C20.8664 25.1562 21.3554 25.6452 21.3554 26.25C21.3554 26.8548 20.8664 27.3438 20.2616 27.3438C19.3582 27.3438 18.6221 28.0798 18.6221 28.9844C18.6221 29.8889 19.3582 30.625 20.2616 30.625C20.8664 30.625 21.3554 31.1139 21.3554 31.7188C21.3554 32.3236 20.8664 32.8125 20.2616 32.8125Z" fill="black"/>
<path d="M14.7695 27.3438C12.6586 27.3438 10.9414 25.6266 10.9414 23.5156C10.9414 21.4047 12.6586 19.6875 14.7695 19.6875C15.3744 19.6875 15.8633 20.1764 15.8633 20.7812C15.8633 21.3861 15.3744 21.875 14.7695 21.875C13.865 21.875 13.1289 22.6111 13.1289 23.5156C13.1289 24.4202 13.865 25.1562 14.7695 25.1562C15.3744 25.1562 15.8633 25.6452 15.8633 26.25C15.8633 26.8548 15.3744 27.3438 14.7695 27.3438Z" fill="black"/>
<path d="M14.7695 16.4062C12.6586 16.4062 10.9414 14.6891 10.9414 12.5781C10.9414 10.4672 12.6586 8.75 14.7695 8.75C15.3744 8.75 15.8633 9.23891 15.8633 9.84375C15.8633 10.4486 15.3744 10.9375 14.7695 10.9375C13.865 10.9375 13.1289 11.6736 13.1289 12.5781C13.1289 13.4827 13.865 14.2188 14.7695 14.2188C15.3744 14.2188 15.8633 14.7077 15.8633 15.3125C15.8633 15.9173 15.3744 16.4062 14.7695 16.4062Z" fill="black"/>
<path d="M11.4883 21.875C9.37734 21.875 7.66016 20.1578 7.66016 18.0469C7.66016 15.9359 9.37734 14.2188 11.4883 14.2188C12.0931 14.2188 12.582 14.7077 12.582 15.3125C12.582 15.9173 12.0931 16.4062 11.4883 16.4062C10.5837 16.4062 9.84766 17.1423 9.84766 18.0469C9.84766 18.9514 10.5837 19.6875 11.4883 19.6875C12.0931 19.6875 12.582 20.1764 12.582 20.7812C12.582 21.3861 12.0931 21.875 11.4883 21.875Z" fill="black"/>
<path d="M42.6621 32.8125C42.0573 32.8125 41.5684 32.3236 41.5684 31.7187C41.5684 31.1139 42.0573 30.625 42.6621 30.625C45.4216 30.625 47.9952 29.1561 49.3766 26.7914C49.6807 26.2718 50.3523 26.0946 50.8718 26.3998C51.3946 26.7039 51.5696 27.3743 51.2645 27.8961C49.4926 30.9279 46.196 32.8125 42.6621 32.8125Z" fill="black"/>
<path d="M42.6627 32.8125H20.2627C19.6579 32.8125 19.1689 32.3236 19.1689 31.7188C19.1689 31.1139 19.6579 30.625 20.2627 30.625H42.6627C43.2675 30.625 43.7564 31.1139 43.7564 31.7188C43.7564 32.3236 43.2675 32.8125 42.6627 32.8125Z" fill="black"/>
<path d="M29.5362 27.3438H14.7695C14.1647 27.3438 13.6758 26.8548 13.6758 26.25C13.6758 25.6452 14.1647 25.1562 14.7695 25.1562H29.5362C30.1411 25.1562 30.63 25.6452 30.63 26.25C30.63 26.8548 30.1411 27.3438 29.5362 27.3438Z" fill="black"/>
<path d="M29.5362 21.875H11.4883C10.8834 21.875 10.3945 21.3861 10.3945 20.7812C10.3945 20.1764 10.8834 19.6875 11.4883 19.6875H29.5362C30.1411 19.6875 30.63 20.1764 30.63 20.7812C30.63 21.3861 30.1411 21.875 29.5362 21.875Z" fill="black"/>
<path d="M29.5362 16.4062H11.4883C10.8834 16.4062 10.3945 15.9173 10.3945 15.3125C10.3945 14.7077 10.8834 14.2188 11.4883 14.2188H29.5362C30.1411 14.2188 30.63 14.7077 30.63 15.3125C30.63 15.9173 30.1411 16.4062 29.5362 16.4062Z" fill="black"/>
<path d="M35.0083 10.9375H14.7695C14.1647 10.9375 13.6758 10.4486 13.6758 9.84375C13.6758 9.23891 14.1647 8.75 14.7695 8.75H35.0083C35.6131 8.75 36.102 9.23891 36.102 9.84375C36.102 10.4486 35.6131 10.9375 35.0083 10.9375Z" fill="black"/>
<path d="M31.1799 6.5625C30.8474 6.5625 30.5193 6.41156 30.3049 6.12719C29.804 5.46109 29.5382 4.66703 29.5371 3.83031C29.5371 1.71719 31.2543 0 33.3652 0C34.0718 0 34.763 0.193594 35.3613 0.561094C35.8776 0.876094 36.0395 1.54875 35.7234 2.06391C35.4084 2.58016 34.7335 2.74531 34.2205 2.42594C33.9657 2.26953 33.6693 2.1875 33.3652 2.1875C32.4607 2.1875 31.7246 2.92359 31.7246 3.82812C31.7257 4.18578 31.8384 4.52703 32.0527 4.81031C32.4159 5.29266 32.3196 5.97844 31.8373 6.34156C31.6393 6.49141 31.4085 6.5625 31.1799 6.5625Z" fill="black"/>
<path d="M35.0081 10.9375C34.7051 10.9375 34.4021 10.8117 34.1856 10.5645L30.457 6.31528C30.0588 5.86138 30.1037 5.17013 30.5587 4.772C31.0115 4.37606 31.7027 4.41872 32.102 4.87372L35.8306 9.12294C36.2287 9.57684 36.1838 10.2681 35.7288 10.6662C35.5221 10.8478 35.264 10.9375 35.0081 10.9375Z" fill="black"/>
<path d="M50.3284 15.3257C49.9675 15.3257 49.6131 15.1463 49.4042 14.8192C48.5379 13.4564 47.3304 12.2435 45.8156 11.211C45.3157 10.8708 45.1867 10.1905 45.5268 9.69174C45.867 9.19299 46.5484 9.06065 47.0461 9.40299C48.8081 10.6028 50.2223 12.0291 51.2504 13.6435C51.5753 14.1532 51.4243 14.8291 50.9146 15.1539C50.732 15.2699 50.5286 15.3257 50.3284 15.3257Z" fill="black"/>
<path d="M46.4293 11.4012C46.1996 11.4012 45.9677 11.3302 45.7709 11.1803L34.0371 2.31219C33.5548 1.94797 33.4596 1.26219 33.8238 0.780938C34.1859 0.2975 34.8749 0.20125 35.3551 0.567656L47.0899 9.43469C47.5723 9.79891 47.6674 10.4847 47.3032 10.9659C47.0888 11.2514 46.7607 11.4012 46.4293 11.4012Z" fill="black"/>
<path d="M54.6934 15.3257H50.3271C49.7223 15.3257 49.2334 14.8368 49.2334 14.2319C49.2334 13.6271 49.7223 13.1382 50.3271 13.1382H54.6934C55.2982 13.1382 55.7871 13.6271 55.7871 14.2319C55.7871 14.8368 55.2982 15.3257 54.6934 15.3257Z" fill="black"/>
<path d="M54.6931 28.4375H50.3203C49.7155 28.4375 49.2266 27.9486 49.2266 27.3438C49.2266 26.7389 49.7155 26.25 50.3203 26.25H54.6931C55.298 26.25 55.7869 26.7389 55.7869 27.3438C55.7869 27.9486 55.298 28.4375 54.6931 28.4375Z" fill="black"/>
<path d="M57.9538 29.5466H54.6846C54.0797 29.5466 53.5908 29.0577 53.5908 28.4528V13.125C53.5908 12.5202 54.0797 12.0312 54.6846 12.0312H57.9538C58.5586 12.0312 59.0475 12.5202 59.0475 13.125C59.0475 13.7298 58.5586 14.2188 57.9538 14.2188H55.7783V27.3591H57.9538C58.5586 27.3591 59.0475 27.848 59.0475 28.4528C59.0475 29.0577 58.5586 29.5466 57.9538 29.5466Z" fill="black"/>
<path d="M68.9052 30.625H57.9688C57.3639 30.625 56.875 30.1361 56.875 29.5312V12.0312C56.875 11.4264 57.3639 10.9375 57.9688 10.9375H68.9052C69.51 10.9375 69.9989 11.4264 69.9989 12.0312C69.9989 12.6361 69.51 13.125 68.9052 13.125H59.0625V28.4375H68.9052C69.51 28.4375 69.9989 28.9264 69.9989 29.5312C69.9989 30.1361 69.51 30.625 68.9052 30.625Z" fill="black"/>
<path d="M34.9971 55.7856C33.188 55.7856 31.7158 54.3135 31.7158 52.5044C31.7158 50.762 33.0239 48.1272 34.9971 48.1272C36.9702 48.1272 38.2783 50.762 38.2783 52.5044C38.2783 54.3135 36.8061 55.7856 34.9971 55.7856ZM34.9938 50.3147C34.6471 50.3628 33.9033 51.6075 33.9033 52.5044C33.9033 53.1081 34.3933 53.5981 34.9971 53.5981C35.6008 53.5981 36.0908 53.1081 36.0908 52.5044C36.0908 51.6075 35.3471 50.3628 34.9938 50.3147Z" fill="black"/>
<path d="M41.5616 47.0334C40.6855 47.0334 39.8608 46.6911 39.2418 46.072C38.0102 44.8404 37.0739 42.0535 38.4685 40.659C38.9202 40.2062 39.5611 39.9667 40.3224 39.9667C41.5354 39.9667 43.0327 40.5825 43.8825 41.4312C45.16 42.712 45.16 44.7923 43.8836 46.072C43.2635 46.6911 42.4388 47.0334 41.5616 47.0334ZM40.3224 42.1542C40.1266 42.1542 40.0303 42.1935 40.0128 42.2078C39.8007 42.4867 40.1539 43.891 40.7883 44.5254C41.2028 44.9378 41.9214 44.9378 42.336 44.5254C42.7614 44.0989 42.7614 43.4054 42.3349 42.9789C41.9466 42.5895 41.0027 42.1542 40.3224 42.1542Z" fill="black"/>
<path d="M30.6242 44.8448C29.7481 44.8448 28.9245 44.5035 28.3054 43.8856C27.0247 42.6048 27.0247 40.5223 28.3044 39.2426C29.1531 38.3939 30.6504 37.777 31.8634 37.777C32.6247 37.777 33.2656 38.0165 33.7184 38.4693C35.1119 39.8628 34.1756 42.6518 32.9451 43.8845C32.3239 44.5035 31.5003 44.8448 30.6242 44.8448ZM31.8634 39.9645C31.1842 39.9645 30.2403 40.3998 29.8509 40.7892C29.4233 41.2168 29.4233 41.9103 29.8509 42.3379C30.2633 42.7481 30.984 42.7492 31.3986 42.3368C32.0319 41.7024 32.3862 40.297 32.1697 40.0137C32.1554 40.0039 32.0603 39.9645 31.8634 39.9645Z" fill="black"/>
<path d="M4.40781 65.625C3.80297 65.625 3.30859 65.1361 3.30859 64.5312C3.30859 63.9264 3.79203 63.4375 4.39578 63.4375H4.40781C5.01156 63.4375 5.50156 63.9264 5.50156 64.5312C5.50156 65.1361 5.01156 65.625 4.40781 65.625Z" fill="black"/>
<path d="M4.40781 56.875C3.80297 56.875 3.30859 56.3861 3.30859 55.7812C3.30859 55.1764 3.79203 54.6875 4.39578 54.6875H4.40781C5.01156 54.6875 5.50156 55.1764 5.50156 55.7812C5.50156 56.3861 5.01156 56.875 4.40781 56.875Z" fill="black"/>
<path d="M8.78281 61.25C8.17797 61.25 7.68359 60.7611 7.68359 60.1562C7.68359 59.5514 8.16703 59.0625 8.77078 59.0625H8.78281C9.38656 59.0625 9.87656 59.5514 9.87656 60.1562C9.87656 60.7611 9.38656 61.25 8.78281 61.25Z" fill="black"/>
<path d="M13.1578 65.625C12.553 65.625 12.0586 65.1361 12.0586 64.5312C12.0586 63.9264 12.542 63.4375 13.1458 63.4375H13.1578C13.7616 63.4375 14.2516 63.9264 14.2516 64.5312C14.2516 65.1361 13.7616 65.625 13.1578 65.625Z" fill="black"/>
<path d="M4.40781 48.125C3.80297 48.125 3.30859 47.6361 3.30859 47.0312C3.30859 46.4264 3.79203 45.9375 4.39578 45.9375H4.40781C5.01156 45.9375 5.50156 46.4264 5.50156 47.0312C5.50156 47.6361 5.01156 48.125 4.40781 48.125Z" fill="black"/>
<path d="M8.78281 52.5C8.17797 52.5 7.68359 52.0111 7.68359 51.4062C7.68359 50.8014 8.16703 50.3125 8.77078 50.3125H8.78281C9.38656 50.3125 9.87656 50.8014 9.87656 51.4062C9.87656 52.0111 9.38656 52.5 8.78281 52.5Z" fill="black"/>
<path d="M13.1578 56.875C12.553 56.875 12.0586 56.3861 12.0586 55.7812C12.0586 55.1764 12.542 54.6875 13.1458 54.6875H13.1578C13.7616 54.6875 14.2516 55.1764 14.2516 55.7812C14.2516 56.3861 13.7616 56.875 13.1578 56.875Z" fill="black"/>
<path d="M17.5328 61.25C16.928 61.25 16.4336 60.7611 16.4336 60.1562C16.4336 59.5514 16.917 59.0625 17.5208 59.0625H17.5328C18.1366 59.0625 18.6266 59.5514 18.6266 60.1562C18.6266 60.7611 18.1366 61.25 17.5328 61.25Z" fill="black"/>
<path d="M21.9078 65.625C21.303 65.625 20.8086 65.1361 20.8086 64.5312C20.8086 63.9264 21.292 63.4375 21.8958 63.4375H21.9078C22.5116 63.4375 23.0016 63.9264 23.0016 64.5312C23.0016 65.1361 22.5116 65.625 21.9078 65.625Z" fill="black"/>
<path d="M13.1578 48.125C12.553 48.125 12.0586 47.6361 12.0586 47.0312C12.0586 46.4264 12.542 45.9375 13.1458 45.9375H13.1578C13.7616 45.9375 14.2516 46.4264 14.2516 47.0312C14.2516 47.6361 13.7616 48.125 13.1578 48.125Z" fill="black"/>
<path d="M17.5328 52.5C16.928 52.5 16.4336 52.0111 16.4336 51.4062C16.4336 50.8014 16.917 50.3125 17.5208 50.3125H17.5328C18.1366 50.3125 18.6266 50.8014 18.6266 51.4062C18.6266 52.0111 18.1366 52.5 17.5328 52.5Z" fill="black"/>
<path d="M21.9078 56.875C21.303 56.875 20.8086 56.3861 20.8086 55.7812C20.8086 55.1764 21.292 54.6875 21.8958 54.6875H21.9078C22.5116 54.6875 23.0016 55.1764 23.0016 55.7812C23.0016 56.3861 22.5116 56.875 21.9078 56.875Z" fill="black"/>
<path d="M26.2828 61.25C25.678 61.25 25.1836 60.7611 25.1836 60.1562C25.1836 59.5514 25.667 59.0625 26.2708 59.0625H26.2828C26.8866 59.0625 27.3766 59.5514 27.3766 60.1562C27.3766 60.7611 26.8866 61.25 26.2828 61.25Z" fill="black"/>
<path d="M30.6578 65.625C30.053 65.625 29.5586 65.1361 29.5586 64.5312C29.5586 63.9264 30.042 63.4375 30.6458 63.4375H30.6578C31.2616 63.4375 31.7516 63.9264 31.7516 64.5312C31.7516 65.1361 31.2616 65.625 30.6578 65.625Z" fill="black"/>
<path d="M39.4078 65.625C38.803 65.625 38.3086 65.1361 38.3086 64.5312C38.3086 63.9264 38.792 63.4375 39.3958 63.4375H39.4078C40.0116 63.4375 40.5016 63.9264 40.5016 64.5312C40.5016 65.1361 40.0116 65.625 39.4078 65.625Z" fill="black"/>
<path d="M43.7828 61.25C43.178 61.25 42.6836 60.7611 42.6836 60.1562C42.6836 59.5514 43.167 59.0625 43.7708 59.0625H43.7828C44.3866 59.0625 44.8766 59.5514 44.8766 60.1562C44.8766 60.7611 44.3866 61.25 43.7828 61.25Z" fill="black"/>
<path d="M48.1578 65.625C47.553 65.625 47.0586 65.1361 47.0586 64.5312C47.0586 63.9264 47.542 63.4375 48.1458 63.4375H48.1578C48.7616 63.4375 49.2516 63.9264 49.2516 64.5312C49.2516 65.1361 48.7616 65.625 48.1578 65.625Z" fill="black"/>
<path d="M48.1578 56.875C47.553 56.875 47.0586 56.3861 47.0586 55.7812C47.0586 55.1764 47.542 54.6875 48.1458 54.6875H48.1578C48.7616 54.6875 49.2516 55.1764 49.2516 55.7812C49.2516 56.3861 48.7616 56.875 48.1578 56.875Z" fill="black"/>
<path d="M52.5328 61.25C51.928 61.25 51.4336 60.7611 51.4336 60.1562C51.4336 59.5514 51.917 59.0625 52.5208 59.0625H52.5328C53.1366 59.0625 53.6266 59.5514 53.6266 60.1562C53.6266 60.7611 53.1366 61.25 52.5328 61.25Z" fill="black"/>
<path d="M56.9078 65.625C56.303 65.625 55.8086 65.1361 55.8086 64.5312C55.8086 63.9264 56.292 63.4375 56.8958 63.4375H56.9078C57.5116 63.4375 58.0016 63.9264 58.0016 64.5312C58.0016 65.1361 57.5116 65.625 56.9078 65.625Z" fill="black"/>
<path d="M52.5328 52.5C51.928 52.5 51.4336 52.0111 51.4336 51.4062C51.4336 50.8014 51.917 50.3125 52.5208 50.3125H52.5328C53.1366 50.3125 53.6266 50.8014 53.6266 51.4062C53.6266 52.0111 53.1366 52.5 52.5328 52.5Z" fill="black"/>
<path d="M56.9078 56.875C56.303 56.875 55.8086 56.3861 55.8086 55.7812C55.8086 55.1764 56.292 54.6875 56.8958 54.6875H56.9078C57.5116 54.6875 58.0016 55.1764 58.0016 55.7812C58.0016 56.3861 57.5116 56.875 56.9078 56.875Z" fill="black"/>
<path d="M61.2828 61.25C60.678 61.25 60.1836 60.7611 60.1836 60.1562C60.1836 59.5514 60.667 59.0625 61.2708 59.0625H61.2828C61.8866 59.0625 62.3766 59.5514 62.3766 60.1562C62.3766 60.7611 61.8866 61.25 61.2828 61.25Z" fill="black"/>
<path d="M65.6578 65.625C65.053 65.625 64.5586 65.1361 64.5586 64.5312C64.5586 63.9264 65.042 63.4375 65.6458 63.4375H65.6578C66.2616 63.4375 66.7516 63.9264 66.7516 64.5312C66.7516 65.1361 66.2616 65.625 65.6578 65.625Z" fill="black"/>
<path d="M56.9078 48.125C56.303 48.125 55.8086 47.6361 55.8086 47.0312C55.8086 46.4264 56.292 45.9375 56.8958 45.9375H56.9078C57.5116 45.9375 58.0016 46.4264 58.0016 47.0312C58.0016 47.6361 57.5116 48.125 56.9078 48.125Z" fill="black"/>
<path d="M61.2828 52.5C60.678 52.5 60.1836 52.0111 60.1836 51.4062C60.1836 50.8014 60.667 50.3125 61.2708 50.3125H61.2828C61.8866 50.3125 62.3766 50.8014 62.3766 51.4062C62.3766 52.0111 61.8866 52.5 61.2828 52.5Z" fill="black"/>
<path d="M65.6578 56.875C65.053 56.875 64.5586 56.3861 64.5586 55.7812C64.5586 55.1764 65.042 54.6875 65.6458 54.6875H65.6578C66.2616 54.6875 66.7516 55.1764 66.7516 55.7812C66.7516 56.3861 66.2616 56.875 65.6578 56.875Z" fill="black"/>
<path d="M65.6578 48.125C65.053 48.125 64.5586 47.6361 64.5586 47.0312C64.5586 46.4264 65.042 45.9375 65.6458 45.9375H65.6578C66.2616 45.9375 66.7516 46.4264 66.7516 47.0312C66.7516 47.6361 66.2616 48.125 65.6578 48.125Z" fill="black"/>
</g>
<defs>
<clipPath id="clip0_1506_1081">
<rect width="70" height="70" fill="white"/>
</clipPath>
</defs>
</svg>
