<svg width="70" height="70" viewBox="0 0 70 70" fill="none" xmlns="http://www.w3.org/2000/svg">
<g clip-path="url(#clip0_1506_1217)">
<path d="M8.61035 59.6166C8.97197 59.5466 9.33372 59.5 9.69534 59.465C9.42054 59.6468 9.08394 59.7098 8.76197 59.64C8.71248 59.6266 8.66162 59.6186 8.61035 59.6166Z" fill="#61443C"/>
<path d="M68.8334 68.8332H65.3334C65.3557 64.6282 62.5754 60.9226 58.5319 59.7683C57.7411 59.5522 56.9251 59.4422 56.1053 59.4417C55.7738 59.4379 55.4424 59.4573 55.1137 59.5001C55.364 58.4569 55.4892 57.3878 55.4871 56.3151C55.5386 49.7897 50.7676 44.2268 44.3105 43.2836C44.8949 43.2091 45.4832 43.1701 46.0721 43.167C49.529 43.1958 52.8326 44.5979 55.255 47.064C57.6775 49.5302 59.0201 52.8583 58.987 56.3151C58.9893 57.3878 58.864 58.4569 58.6136 59.5001C58.9425 59.4574 59.2739 59.4379 59.6053 59.4417C64.746 59.4889 68.8763 63.6924 68.8334 68.8332Z" fill="#61443C"/>
<path d="M65.3331 68.8332H1.16716C1.14104 64.3819 4.25341 60.528 8.61046 59.6167C8.66173 59.6187 8.71259 59.6265 8.76208 59.64C9.08405 59.7099 9.42065 59.6469 9.69545 59.465C9.92883 59.4534 10.1621 59.4417 10.3954 59.4417C11.023 59.4417 11.6486 59.5081 12.262 59.64C12.5798 59.7165 12.9149 59.6601 13.1899 59.484C13.4652 59.3079 13.6567 59.0273 13.7203 58.7068C14.7703 53.2783 19.135 49.1054 24.6052 48.3003C25.1965 48.2161 25.7928 48.1733 26.3902 48.1719C28.2059 48.1697 30.0007 48.5598 31.6517 49.3153C32.1872 49.5645 32.7055 49.849 33.2033 50.1669C33.4821 50.3452 33.8222 50.4 34.1428 50.3181C34.4634 50.2363 34.7358 50.0252 34.8951 49.7351C36.8601 46.2486 40.3273 43.8668 44.2866 43.2836H44.31C50.767 44.2268 55.5382 49.7897 55.4865 56.3151C55.4888 57.3877 55.3634 58.4569 55.1131 59.5C55.4419 59.4574 55.7733 59.4378 56.1047 59.4417C56.9245 59.4423 57.7405 59.5521 58.5313 59.7683C62.5751 60.9226 65.3556 64.628 65.3331 68.8332Z" fill="#8B685A"/>
<path d="M68.8332 1.16711C68.8332 1.16711 67.8766 37.3918 42.5135 35.6534C39.7495 35.4416 37.0221 34.8891 34.3936 34.0084C34.207 33.9618 34.0202 33.8918 33.8336 33.8334C33.8336 33.8334 33.752 33.53 33.6352 32.9934C32.7252 28.3385 30.2052 5.78707 65.3215 1.52873C66.4533 1.38887 67.62 1.26049 68.8332 1.16711Z" fill="#66993E"/>
<path d="M65.3216 1.52881C65.1466 5.11039 63.105 34.0901 42.5134 35.6535C39.7494 35.4417 37.022 34.8892 34.3935 34.0085C34.2069 33.9619 34.0201 33.8919 33.8335 33.8335C33.8335 33.8335 33.7519 33.5301 33.6351 32.9935C32.7253 28.3385 30.2053 5.78701 65.3216 1.52881Z" fill="#9ACA5C"/>
<path d="M28.3267 33.8685C28.2217 34.4051 28.1401 34.7085 28.1401 34.7085C27.9535 34.7669 27.7667 34.8369 27.5801 34.8835C24.64 35.8989 21.5245 36.3077 18.4218 36.0851C3.02197 34.6035 1.34199 13.0203 1.17861 9.90536C1.16699 9.66036 1.16699 9.53198 1.16699 9.53198C30.5901 11.912 29.0733 29.7618 28.3267 33.8685Z" fill="#66993E"/>
<path d="M24.7919 33.8685C24.6869 34.4052 24.6052 34.7085 24.6052 34.7085C24.4186 34.7669 24.2319 34.8369 24.0452 34.8835C22.2199 35.4867 20.3345 35.8896 18.4219 36.0851C3.02207 34.6035 1.34209 13.0204 1.17871 9.9054C26.9268 13.382 25.5035 29.9368 24.7919 33.8685Z" fill="#9ACA5C"/>
<path d="M22.1665 58.3333C22.6383 58.3332 23.0637 58.049 23.2441 57.6131C23.4246 57.1773 23.3249 56.6755 22.9913 56.3419L21.8247 55.1753C21.368 54.7267 20.6352 54.7301 20.1825 55.1827C19.7298 55.6354 19.7265 56.3682 20.1751 56.8249L21.3417 57.9915C21.5602 58.2106 21.857 58.3336 22.1665 58.3333Z" fill="black"/>
<path d="M40.0087 54.4914C40.4655 54.94 41.1983 54.9366 41.651 54.484C42.1036 54.0314 42.1069 53.2986 41.6583 52.8418L40.4917 51.6752C40.035 51.2266 39.3022 51.23 38.8495 51.6826C38.3968 52.1351 38.3935 52.868 38.8421 53.3248L40.0087 54.4914Z" fill="black"/>
<path d="M40.4917 62.1751C40.035 61.7265 39.3022 61.7299 38.8495 62.1824C38.3968 62.6351 38.3935 63.3679 38.8421 63.8247L40.0087 64.9913C40.4655 65.4399 41.1983 65.4364 41.651 64.9839C42.1036 64.5312 42.1069 63.7984 41.6583 63.3417L40.4917 62.1751Z" fill="black"/>
<path d="M52.8417 64.9913C53.2985 65.4399 54.0313 65.4364 54.484 64.9839C54.9366 64.5312 54.9399 63.7984 54.4913 63.3417L53.3247 62.1751C52.868 61.7265 52.1352 61.7299 51.6825 62.1824C51.2298 62.6351 51.2265 63.3679 51.6751 63.8247L52.8417 64.9913Z" fill="black"/>
<path d="M28.0004 56C28.3099 56.0004 28.6067 55.8774 28.8252 55.6582L29.9918 54.4916C30.4404 54.0348 30.437 53.302 29.9844 52.8494C29.5318 52.3967 28.799 52.3934 28.3422 52.842L27.1756 54.0086C26.842 54.3422 26.7423 54.8439 26.9228 55.2798C27.1033 55.7156 27.5286 55.9999 28.0004 56Z" fill="black"/>
<path d="M45.4994 60.6666C45.8089 60.667 46.1058 60.544 46.3242 60.3248L47.4908 59.1582C47.9394 58.7015 47.936 57.9687 47.4835 57.516C47.0308 57.0633 46.298 57.06 45.8412 57.5086L44.6746 58.6752C44.341 59.0088 44.2413 59.5106 44.4218 59.9464C44.6023 60.3824 45.0276 60.6666 45.4994 60.6666Z" fill="black"/>
<path d="M46.6664 50.1666C46.9759 50.167 47.2727 50.044 47.4912 49.8248L48.6578 48.6582C49.1064 48.2015 49.103 47.4687 48.6505 47.016C48.1978 46.5633 47.465 46.56 47.0082 47.0086L45.8416 48.1752C45.508 48.5088 45.4083 49.0106 45.5888 49.4464C45.7693 49.8824 46.1946 50.1666 46.6664 50.1666Z" fill="black"/>
<path d="M22.509 62.1751L21.3424 63.3417C21.0433 63.6355 20.9247 64.0672 21.032 64.4725C21.1394 64.8778 21.4559 65.1943 21.8612 65.3016C22.2666 65.409 22.6982 65.2904 22.992 64.9913L24.1586 63.8247C24.6072 63.3679 24.6038 62.6351 24.1513 62.1824C23.6986 61.7299 22.9658 61.7265 22.509 62.1751Z" fill="black"/>
<path d="M31.842 58.6752L30.6754 59.8418C30.3763 60.1356 30.2577 60.5673 30.3651 60.9726C30.4724 61.3779 30.7889 61.6944 31.1942 61.8018C31.5996 61.9091 32.0312 61.7906 32.325 61.4914L33.4916 60.3248C33.9402 59.868 33.9368 59.1352 33.4843 58.6826C33.0316 58.23 32.2986 58.2266 31.842 58.6752Z" fill="black"/>
<path d="M52.4994 56C52.8089 56.0004 53.1058 55.8774 53.3242 55.6582L54.4908 54.4916C54.9394 54.0348 54.936 53.302 54.4835 52.8494C54.0308 52.3967 53.298 52.3934 52.8412 52.842L51.6746 54.0086C51.341 54.3422 51.2413 54.8439 51.4218 55.2798C51.6023 55.7156 52.0276 55.9999 52.4994 56Z" fill="black"/>
<path d="M9.67502 63.3418L8.50841 64.5084C8.20927 64.8022 8.09073 65.2339 8.19806 65.6392C8.30538 66.0444 8.62188 66.361 9.02725 66.4683C9.43262 66.5757 9.86423 66.4571 10.158 66.158L11.3246 64.9914C11.7732 64.5346 11.7698 63.8018 11.3173 63.3491C10.8645 62.8966 10.1317 62.8933 9.67502 63.3418Z" fill="black"/>
<path d="M16.675 61.0085L15.5084 62.1751C15.2093 62.4689 15.0907 62.9006 15.1981 63.3059C15.3054 63.7112 15.6219 64.0277 16.0272 64.1351C16.4326 64.2424 16.8642 64.1239 17.158 63.8247L18.3246 62.6581C18.7732 62.2013 18.7698 61.4685 18.3173 61.0159C17.8645 60.5632 17.1317 60.5599 16.675 61.0085Z" fill="black"/>
<path d="M27.6583 57.5085C27.4395 57.2897 27.1428 57.1667 26.8334 57.1667C26.524 57.1667 26.2274 57.2897 26.0086 57.5085L24.842 58.6751C24.5442 58.9692 24.4268 59.4003 24.5343 59.8047C24.6417 60.2091 24.9577 60.5251 25.3621 60.6325C25.7665 60.74 26.1976 60.6226 26.4916 60.3248L27.6583 59.1582C27.8771 58.9394 28 58.6427 28 58.3334C28 58.024 27.8771 57.7272 27.6583 57.5085Z" fill="black"/>
<path d="M28.8247 63.3417C28.368 62.8931 27.6352 62.8965 27.1825 63.3491C26.7298 63.8017 26.7265 64.5345 27.1751 64.9913L28.3417 66.1579C28.6355 66.4571 29.0673 66.5756 29.4725 66.4683C29.8779 66.3609 30.1944 66.0444 30.3017 65.6391C30.409 65.2337 30.2905 64.8021 29.9913 64.5083L28.8247 63.3417Z" fill="black"/>
<path d="M47.008 62.1751L45.8414 63.3417C45.5423 63.6355 45.4237 64.0672 45.5311 64.4725C45.6384 64.8778 45.9549 65.1943 46.3603 65.3016C46.7656 65.409 47.1972 65.2904 47.491 64.9913L48.6577 63.8247C49.1062 63.3679 49.1028 62.6351 48.6503 62.1824C48.1976 61.7299 47.4648 61.7265 47.008 62.1751Z" fill="black"/>
<path d="M58.6747 66.1582C59.1315 66.6067 59.8643 66.6033 60.317 66.1508C60.7696 65.6983 60.7729 64.9653 60.3244 64.5085L59.1577 63.3419C58.701 62.8934 57.9682 62.8968 57.5155 63.3493C57.0628 63.802 57.0595 64.5348 57.5081 64.9916L58.6747 66.1582Z" fill="black"/>
<path d="M46.6664 54.8334C46.9759 54.8338 47.2727 54.7108 47.4912 54.4916L48.6578 53.325C49.1064 52.8682 49.103 52.1354 48.6505 51.6827C48.1979 51.2301 47.465 51.2268 47.0082 51.6753L45.8416 52.842C45.508 53.1757 45.4083 53.6773 45.5888 54.1132C45.7693 54.549 46.1946 54.8333 46.6664 54.8334Z" fill="black"/>
<path d="M37.3334 59.5C37.6429 59.5004 37.9397 59.3774 38.1582 59.1582L39.3248 57.9916C39.7734 57.5348 39.77 56.802 39.3174 56.3494C38.8649 55.8967 38.132 55.8934 37.6752 56.342L36.5086 57.5086C36.175 57.8422 36.0753 58.3439 36.2558 58.7798C36.4364 59.2156 36.8616 59.4999 37.3334 59.5Z" fill="black"/>
<path d="M34.6329 35.292C37.7416 36.3012 40.9832 36.8421 44.2511 36.8966C48.5717 36.9709 52.807 35.6897 56.362 33.2332C69.2442 24.2474 69.9745 2.13513 69.9995 1.19794C70.0076 0.866943 69.8751 0.547981 69.6349 0.320073C69.3955 0.0905243 69.0688 -0.0244551 68.7383 0.00452904C52.9521 1.28461 42.0523 6.08969 36.342 14.287C32.4534 20.0498 31.1197 27.1636 32.6567 33.9437C32.1903 35.0875 31.8309 36.272 31.5832 37.4821C30.9569 36.4306 30.2165 35.4513 29.3756 34.562C30.4725 29.3452 29.4085 23.9064 26.4266 19.4874C21.9777 13.1015 13.5114 9.35942 1.26157 8.36658C0.93112 8.33732 0.604229 8.45244 0.364973 8.68212C0.124761 8.91003 -0.00771833 9.22899 0.000347992 9.55998C0.0197619 10.2875 0.587138 27.4603 10.6256 34.462C13.4089 36.3871 16.7255 37.3916 20.1093 37.3341C22.6555 37.2919 25.1811 36.8709 27.6033 36.0848C29.2015 37.7949 30.4092 39.8318 31.1428 42.0546C31.1632 44.1235 31.4378 46.1821 31.9606 48.1839C30.2049 47.4092 28.3071 47.0088 26.3882 47.0081C19.6276 47.0761 13.8392 51.8707 12.5137 58.5003C11.8172 58.3509 11.1069 58.276 10.3946 58.2764C4.6121 58.3283 -0.037386 63.0507 0.000621427 68.8333C0.00048471 69.1427 0.123394 69.4395 0.342278 69.6584C0.561026 69.8771 0.857839 70 1.16737 70H68.8333C69.1427 70.0002 69.4395 69.8773 69.6584 69.6584C69.8772 69.4396 70.0001 69.1428 70.0001 68.8333C70.0341 63.2138 65.6369 58.5642 60.0242 58.285C60.1131 57.6315 60.1575 56.9728 60.1575 56.3134C60.2825 50.0689 56.2653 44.4935 50.3025 42.6355C44.3396 40.7775 37.8664 43.0842 34.4222 48.2944C33.12 44.0463 33.194 39.4955 34.6329 35.292ZM11.9653 32.5513C4.398 27.2786 2.7563 14.8806 2.41792 10.8138C13.1913 11.8968 20.6139 15.2508 24.492 20.7931C26.5883 23.8696 27.6173 27.5489 27.4209 31.2665C24.2418 26.4319 16.7802 16.8119 5.20805 12.0471C4.82251 11.8879 4.38118 11.9465 4.0506 12.201C3.72002 12.4554 3.55049 12.8672 3.606 13.2806C3.6615 13.694 3.93343 14.0465 4.31939 14.205C16.5229 19.2295 24.1122 30.307 26.3845 34.0118C20.6162 35.6707 15.7621 35.1981 11.9653 32.5513ZM38.2766 15.5921C43.4171 8.23834 53.2756 3.81895 67.5899 2.44835C67.2276 7.28473 65.2441 24.1933 55.0266 31.3197C49.9082 34.8902 43.3631 35.4991 35.5711 33.1562C38.2075 28.7689 48.2152 13.6638 64.6105 6.91272C64.9959 6.75399 65.2675 6.40167 65.3227 5.98851C65.3779 5.57535 65.2085 5.16397 64.8784 4.90954C64.5482 4.65511 64.1073 4.59618 63.7219 4.75491C48.0408 11.2122 38.2077 24.5825 34.4843 30.4485C33.9842 25.2062 35.3251 19.9532 38.2766 15.5921ZM35.9148 50.3144C37.9788 46.639 41.8576 44.3553 46.0729 44.3335C52.6225 44.4047 57.8788 49.7635 57.8237 56.3134C57.8236 57.2961 57.7066 58.2754 57.4751 59.2305C57.3835 59.6083 57.4861 60.0067 57.7484 60.2934C58.0108 60.5801 58.3988 60.7172 58.7831 60.6592C59.0557 60.622 59.3306 60.6055 59.6057 60.6097C63.6512 60.6484 67.0523 63.6563 67.5855 67.6667H2.4145C2.94757 63.6563 6.34882 60.6484 10.3943 60.6097C10.9412 60.6092 11.4865 60.6666 12.0212 60.7812C12.6531 60.9158 13.3128 60.7946 13.8556 60.4439C14.383 60.0995 14.7485 59.5562 14.8684 58.9377C15.9338 53.4043 20.7531 49.3896 26.3879 49.3412C28.5815 49.3409 30.7296 49.9676 32.5789 51.1475C33.1271 51.4976 33.7953 51.6066 34.4262 51.449C35.0573 51.2916 35.5957 50.8812 35.9148 50.3144Z" fill="black"/>
</g>
<defs>
<clipPath id="clip0_1506_1217">
<rect width="70" height="70" fill="white"/>
</clipPath>
</defs>
</svg>
