<svg width="64" height="64" viewBox="0 0 64 64" fill="none" xmlns="http://www.w3.org/2000/svg">
<path d="M32.0001 42.7537C41.7676 42.7537 49.7151 34.8075 49.7151 25.0387C49.7151 15.2712 41.7688 7.32375 32.0001 7.32375C22.2326 7.32375 14.2851 15.27 14.2851 25.0387C14.2851 34.8063 22.2326 42.7537 32.0001 42.7537ZM32.0001 8.82375C40.9413 8.82375 48.2151 16.0975 48.2151 25.0387C48.2151 33.98 40.9413 41.2537 32.0001 41.2537C23.0588 41.2537 15.7851 33.98 15.7851 25.0387C15.7851 16.0975 23.0588 8.82375 32.0001 8.82375ZM48.5838 42.075C53.0251 37.7513 55.7888 31.7113 55.7888 25.0387C55.7888 11.9212 45.1176 1.25 32.0001 1.25C18.8826 1.25 8.2113 11.9212 8.2113 25.0387C8.2113 31.7125 10.9751 37.7513 15.4163 42.075L10.2626 55.995C10.1763 56.2287 10.2113 56.49 10.3563 56.6925C10.5013 56.895 10.7388 57.01 10.9863 57.005L19.5988 56.7663L25.9801 62.5563C26.1201 62.6825 26.3001 62.7513 26.4838 62.7513C26.5426 62.7513 26.6026 62.7437 26.6613 62.73C26.9038 62.6712 27.1001 62.495 27.1863 62.2612L32.0001 49.2625L36.8126 62.26C36.8988 62.4937 37.0963 62.6687 37.3376 62.7287C37.3963 62.7437 37.4563 62.75 37.5151 62.75C37.6988 62.75 37.8801 62.6825 38.0188 62.555L44.4001 56.765L53.0126 57.0037C53.2613 57.0075 53.4976 56.8937 53.6426 56.6912C53.7876 56.4888 53.8226 56.2275 53.7363 55.9938L48.5838 42.075ZM9.7113 25.0387C9.7113 12.7487 19.7101 2.75 32.0001 2.75C44.2901 2.75 54.2888 12.7487 54.2888 25.0387C54.2888 37.3288 44.2901 47.3275 32.0001 47.3275C19.7101 47.3275 9.7113 37.3288 9.7113 25.0387ZM26.1663 60.6987L20.3838 55.4525C20.2401 55.3225 20.0526 55.255 19.8588 55.2588L12.0538 55.475L16.6113 43.165C20.4238 46.4075 25.2688 48.47 30.5763 48.7837L26.1663 60.6987ZM44.1401 55.2588C43.9463 55.255 43.7588 55.3225 43.6151 55.4525L37.8326 60.6987L33.4213 48.7837C38.7288 48.4688 43.5738 46.4062 47.3863 43.165L51.9438 55.475L44.1401 55.2588ZM24.3888 35.4388C24.3051 35.74 24.4176 36.0612 24.6713 36.245C24.9238 36.4287 25.2651 36.4362 25.5251 36.2637L32.0001 31.9862L38.4751 36.2637C38.6001 36.3462 38.7451 36.3875 38.8888 36.3875C39.0438 36.3875 39.1988 36.34 39.3301 36.2438C39.5826 36.06 39.6951 35.7388 39.6126 35.4375L37.5451 27.9575L43.6138 23.1213C43.8588 22.9263 43.9563 22.6 43.8601 22.3025C43.7638 22.005 43.4926 21.7987 43.1801 21.785L35.4276 21.44L32.7038 14.1737C32.5938 13.8813 32.3138 13.6875 32.0013 13.6875C31.6888 13.6875 31.4088 13.8813 31.2988 14.1737L28.5751 21.44L20.8226 21.785C20.5101 21.7987 20.2388 22.005 20.1426 22.3025C20.0463 22.6 20.1438 22.9263 20.3888 23.1213L26.4576 27.9575L24.3888 35.4388ZM22.8863 23.1963L29.1351 22.9175C29.4351 22.9037 29.6988 22.7125 29.8038 22.4312L32.0001 16.575L34.1951 22.4325C34.3001 22.7138 34.5638 22.905 34.8638 22.9188L41.1126 23.1975L36.2201 27.095C35.9851 27.2825 35.8851 27.5912 35.9651 27.8813L37.6313 33.91L32.4126 30.4625C32.1613 30.2962 31.8363 30.2962 31.5851 30.4625L26.3663 33.91L28.0326 27.8813C28.1126 27.5912 28.0126 27.2825 27.7776 27.095L22.8863 23.1963Z" fill="#017D03"/>
</svg>
