<svg width="64" height="64" viewBox="0 0 64 64" fill="none" xmlns="http://www.w3.org/2000/svg">
<g clip-path="url(#clip0_1334_8293)">
<path d="M10.51 38.795L13.4313 43.7062L19.0138 44.9688C19.5638 45.0925 19.795 45.7663 19.3975 46.2062L15.635 50.4963L16.16 56.1987C16.2113 56.7663 15.6275 57.17 15.1213 56.9525L15.12 56.9538L9.86003 54.6937L4.60003 56.9538C4.10003 57.1688 3.48003 56.7925 3.56628 56.14L4.08503 50.4963L0.308782 46.19C-0.0699684 45.7587 0.166282 45.09 0.707532 44.9688L6.28878 43.7062L9.21503 38.7863C9.51128 38.2875 10.2288 38.3037 10.51 38.795ZM54.7888 38.795L57.71 43.7062L63.2925 44.9688C63.8438 45.0925 64.0738 45.7663 63.6775 46.2062L59.915 50.4963L60.4388 56.1987C60.4913 56.7663 59.9075 57.17 59.4 56.9525L59.3988 56.9538L54.14 54.6937L48.88 56.9538C48.3788 57.1688 47.76 56.7925 47.845 56.14L48.3638 50.4963L44.5875 46.19C44.21 45.7587 44.445 45.09 44.9863 44.9688L50.5688 43.7062L53.495 38.7863C53.7913 38.2875 54.5088 38.3037 54.7888 38.795ZM56.5863 44.745L54.14 40.6312L51.6925 44.745C51.5913 44.9162 51.4213 45.0462 51.2125 45.0938L46.5413 46.15L49.7 49.7525C49.83 49.9 49.9013 50.1 49.8813 50.3112L49.4438 55.0812L53.8438 53.19C54.0263 53.1112 54.2388 53.105 54.435 53.19L58.8363 55.0812L58.3988 50.3312C58.375 50.1287 58.4338 49.9175 58.5788 49.7525L61.7375 46.15L57.1025 45.1012C56.8938 45.065 56.7025 44.9412 56.5863 44.745ZM32.6488 45.7788L35.5713 50.6912L41.1525 51.9538C41.7038 52.0775 41.9338 52.7513 41.5375 53.1912L37.775 57.48L38.3 63.1825C38.3513 63.7512 37.7675 64.155 37.26 63.9362V63.9388L32 61.6787L26.74 63.9388C26.2388 64.1537 25.62 63.7762 25.705 63.125L26.225 57.48L22.4475 53.175C22.07 52.7437 22.3063 52.0737 22.8463 51.9538L28.4288 50.69L31.355 45.7713C31.6513 45.2713 32.3688 45.2887 32.6488 45.7788ZM34.4463 51.73L32 47.6162L29.5525 51.73V51.7287C29.4513 51.9 29.2813 52.0312 29.0725 52.0775L24.4013 53.135L27.56 56.7363C27.69 56.885 27.7613 57.0837 27.7425 57.2962L27.3038 62.065L31.7038 60.175C31.8863 60.0962 32.0988 60.09 32.295 60.1738L36.6963 62.065L36.2588 57.315C36.235 57.1125 36.2938 56.9013 36.4388 56.7363L39.5988 53.135L34.9625 52.0863C34.7538 52.05 34.5625 51.9263 34.4463 51.73ZM15.7575 34.6787C23.6013 21.9688 40.3988 21.9688 48.2425 34.6787C58.6913 21.2425 49.1063 1.5 32 1.5C14.895 1.5 5.30753 21.2425 15.7575 34.6787ZM47.2238 35.89C40.0175 23.5612 23.9825 23.5612 16.7763 35.89C24.9388 44.8737 39.0613 44.8737 47.2238 35.89ZM32 6.17125C39.2775 6.17125 42.9438 15.0112 37.795 20.1612C32.645 25.3112 23.805 21.6437 23.805 14.3663C23.805 9.84 27.4738 6.17125 32 6.17125ZM36.7338 9.6325C32.5275 5.42625 25.305 8.42 25.305 14.3663C25.305 20.3125 32.5275 23.3075 36.7338 19.1C39.3488 16.4862 39.3488 12.2463 36.7338 9.6325ZM32 0C44.1863 0 54.065 9.87875 54.065 22.065C54.065 34.25 44.1863 44.1287 32 44.1287C19.8138 44.1287 9.93503 34.25 9.93503 22.065C9.93503 9.87875 19.8138 0 32 0ZM12.3075 44.745L9.86003 40.6312L7.41378 44.745H7.41253C7.31128 44.9162 7.14253 45.0462 6.93253 45.0938L2.26128 46.15L5.42128 49.7525H5.42003C5.55003 49.9 5.62128 50.1 5.60253 50.3112L5.16378 55.0812L9.56378 53.19C9.74628 53.1112 9.95878 53.105 10.1563 53.19L14.5563 55.0812L14.12 50.3312C14.0963 50.1287 14.155 49.9175 14.3 49.7525L17.4588 46.15L12.8225 45.1012C12.615 45.065 12.4225 44.9412 12.3075 44.745Z" fill="#017D03"/>
</g>
<defs>
<clipPath id="clip0_1334_8293">
<rect width="64" height="64" fill="white"/>
</clipPath>
</defs>
</svg>
