<svg width="64" height="64" viewBox="0 0 64 64" fill="none" xmlns="http://www.w3.org/2000/svg">
<g clip-path="url(#clip0_1334_8304)">
<path d="M43.6079 12.2742C43.2883 11.5881 42.2937 11.5586 41.9335 12.2238C41.918 12.2525 40.3487 15.1182 37.307 17.7893C36.3963 18.5892 37.6337 19.9981 38.5443 19.1982C40.404 17.5648 41.7485 15.8765 42.5788 14.6936C43.3137 16.6112 44.4694 20.047 45.0844 24.0457C45.6324 27.6087 45.6499 30.9155 45.1365 33.874C44.5037 37.5215 43.054 40.6502 40.8282 43.1735C38.7105 45.574 35.8048 47.1252 32.646 47.5417C29.4317 47.9658 26.1005 47.1835 23.2667 45.3395C22.5505 44.8735 21.9073 44.3483 21.3412 43.7741C22.119 42.7698 23.0252 41.8441 24.0472 40.9907C26.7554 38.7296 29.882 37.0317 32.6777 34.8856C34.3728 33.5842 35.948 32.1485 37.2624 30.4566C37.5753 30.0538 37.6478 29.5246 37.2624 29.1308C36.9423 28.8036 36.2467 28.7316 35.9365 29.1308C31.6488 34.6505 24.5382 36.9636 20.1078 42.2648C19.2695 41.011 18.7385 39.6001 18.5583 38.0958C18.204 35.1382 19.2719 32.0925 21.4884 29.7395C23.7453 27.3435 26.3174 26.1231 29.2957 24.7101C30.879 23.9588 32.5162 23.1821 34.333 22.1428C35.3853 21.541 34.4542 19.9132 33.4022 20.5152C31.6477 21.5187 30.0434 22.2798 28.492 23.016C25.3425 24.5103 22.6225 25.8007 20.1235 28.4537C17.5252 31.2123 16.276 34.808 16.6965 38.3187C16.9394 40.3465 17.709 42.2271 18.932 43.8507C17.8029 45.5923 17.0532 47.5603 16.6464 49.5937C16.4108 50.7721 18.2175 51.2762 18.4544 50.0922C18.8015 48.357 19.4162 46.7813 20.2668 45.3493C20.8609 45.9173 21.5209 46.4406 22.244 46.9111C24.9389 48.6647 27.9484 49.5187 30.9084 49.5186C35.1405 49.5186 39.2712 47.7726 42.2342 44.414C44.6982 41.6208 46.2977 38.1737 46.9883 34.1685C47.5342 31.0027 47.5145 27.4853 46.9302 23.7137C45.9418 17.3327 43.7028 12.4777 43.6079 12.2742Z" fill="#017D03"/>
<path d="M54.6275 9.3725C48.5834 3.32863 40.5475 0 32 0C23.4525 0 15.4166 3.32863 9.3725 9.3725C3.32863 15.4166 0 23.4525 0 32C0 40.5475 3.32863 48.5834 9.3725 54.6275C15.4166 60.6714 23.4525 64 32 64C36.6851 64 41.203 63.0081 45.428 61.0521C46.528 60.5429 45.7402 58.8414 44.6403 59.3506C40.664 61.1916 36.4111 62.125 32 62.125C23.9533 62.125 16.3883 58.9915 10.6984 53.3016C5.0085 47.6117 1.875 40.0467 1.875 32C1.875 23.9533 5.0085 16.3883 10.6984 10.6984C16.3883 5.0085 23.9533 1.875 32 1.875C40.0467 1.875 47.6117 5.0085 53.3016 10.6984C58.9915 16.3883 62.125 23.9533 62.125 32C62.125 42.0492 57.1389 51.4014 48.7871 57.0171C47.7812 57.6935 48.8275 59.2495 49.8334 58.573C58.704 52.6085 64 42.6745 64 32C64 23.4525 60.6714 15.4166 54.6275 9.3725Z" fill="#017D03"/>
</g>
<defs>
<clipPath id="clip0_1334_8304">
<rect width="64" height="64" fill="white"/>
</clipPath>
</defs>
</svg>
