<svg width="70" height="70" viewBox="0 0 70 70" fill="none" xmlns="http://www.w3.org/2000/svg">
<g clip-path="url(#clip0_1506_1047)">
<path d="M63.2698 32.2575L61.9975 34.5222L60.8415 36.5652L58.4485 40.8142H16.3631C14.1851 40.8194 12.2943 39.315 11.8103 37.1917C11.3264 35.0683 12.3781 32.8925 14.343 31.9537C14.1366 31.4292 14.03 30.8712 14.0283 30.3074C14.0283 27.7286 16.1186 25.6377 18.698 25.6377C19.1289 25.644 19.5576 25.7107 19.9703 25.8367C20.3973 23.8666 22.0401 22.3937 24.0443 22.1822C23.6054 21.4651 23.3711 20.6414 23.3677 19.8006C23.3677 17.2218 25.458 15.1309 28.0374 15.1309C28.2443 15.1389 28.4506 15.1583 28.6559 15.1896C29.4699 13.7138 31.0215 12.7966 32.7071 12.7961C33.2703 12.7983 33.8283 12.9049 34.3527 13.1113C35.1211 11.493 36.7526 10.4618 38.5442 10.4618C40.3352 10.4618 41.9667 11.493 42.7351 13.1113C43.2595 12.9049 43.8175 12.7983 44.3813 12.7961C46.0663 12.7966 47.6179 13.7138 48.4319 15.1896C48.6372 15.1583 48.8435 15.1389 49.051 15.1309C51.5152 15.1326 53.5548 17.0491 53.7087 19.5088C53.7184 19.6057 53.7224 19.7031 53.7207 19.8006C53.7167 20.6414 53.4824 21.4651 53.0435 22.1822C55.0477 22.3937 56.6905 23.8666 57.1175 25.8367C57.5302 25.7107 57.9589 25.644 58.3904 25.6377C60.9692 25.6377 63.0601 27.7286 63.0601 30.3074C63.0578 30.8712 62.9512 31.4292 62.7448 31.9537C62.9273 32.0409 63.1028 32.1423 63.2698 32.2575Z" fill="#7CA540"/>
<path d="M68.206 15.5984C69.4669 12.6319 69.0456 9.61247 67.2648 8.85604C65.8557 8.25865 64.0265 9.27046 62.696 11.1909C62.1214 10.2253 61.0697 9.64497 59.9468 9.67347C58.0275 9.90718 56.7945 12.6935 57.1799 15.8936C57.5652 19.0932 59.4457 21.497 61.3662 21.2639C62.2212 21.1014 62.9508 20.5479 63.3368 19.7681C65.0309 19.9243 67.0898 18.2274 68.206 15.5984Z" fill="#88BF40"/>
<path d="M66.9938 23.735C66.9938 24.2132 66.9465 24.6904 66.8541 25.1595C66.6951 25.9154 66.4238 26.6439 66.0481 27.3188L66.0367 27.3541L63.2698 32.2575L61.9975 34.5223L60.8414 36.5652L58.4485 40.8143L51.0472 53.9945C50.0701 55.7308 47.9451 56.4553 46.1113 55.6778C44.2775 54.8997 43.321 52.8681 43.8904 50.9591L46.9258 40.8143L50.9771 27.296L51.6423 25.054L52.6695 21.6339C52.8941 20.8723 53.2452 20.1535 53.7086 19.5088C55.5487 16.9077 58.8606 15.7967 61.8971 16.7624C64.9337 17.7286 66.9949 20.5485 66.9938 23.735Z" fill="#FAAC2B"/>
<path d="M45.5487 52.4884C45.5487 58.9361 40.3215 64.1627 33.8744 64.1627C27.4268 64.1627 22.2002 58.9361 22.2002 52.4884C22.2002 46.0414 27.4268 40.8142 33.8744 40.8142C40.3215 40.8142 45.5487 46.0414 45.5487 52.4884Z" fill="#9F1F5A"/>
<path d="M45.9603 41.1996C49.4911 37.365 49.9979 31.6339 47.1945 27.2395C47.8796 26.6724 48.1835 25.7654 47.9771 24.9001C47.7708 24.0343 47.0907 23.3616 46.2237 23.1644C45.3561 22.9672 44.452 23.2795 43.8917 23.971C43.8381 24.0388 43.7885 24.1101 43.7423 24.1836C39.3845 21.8915 33.5986 23.0777 29.9259 27.3216C26.2532 31.5649 25.9078 37.4602 28.7996 41.447C28.7334 41.5034 28.6702 41.5633 28.6103 41.626C27.7815 42.6019 27.8938 44.064 28.8623 44.9019C29.8302 45.7405 31.2929 45.6424 32.1405 44.6819C32.2066 44.601 32.2671 44.5149 32.3218 44.4254C37.073 46.5693 42.673 45.2451 45.9603 41.1996Z" fill="#FDE700"/>
<path d="M6.91247 36.7927C7.26874 43.23 12.9691 51.6574 19.4041 51.3017C25.8386 50.9454 30.5784 41.9423 30.2222 35.5038C29.8665 29.0653 24.4238 25.302 17.9865 25.6577C11.5497 26.0139 6.5562 30.3542 6.91247 36.7927Z" fill="#9F1F5A"/>
<path d="M11.2073 4.2741C7.85323 2.75497 3.89607 4.09169 2.15007 7.33288C0.404064 10.5746 1.46603 14.6145 4.57954 16.5788C4.49005 19.0801 5.74582 21.4383 7.87147 22.7602C9.99711 24.0821 12.6677 24.1653 14.8714 22.9785C15.3457 22.7271 15.7886 22.4199 16.1894 22.063L19.3838 21.8869C19.821 22.1976 20.2947 22.4535 20.7941 22.6508C23.1152 23.5873 25.7602 23.21 27.7274 21.6623C29.694 20.1141 30.6824 17.6322 30.3176 15.1554C33.1797 12.8559 33.7805 8.73687 31.6948 5.71571C29.6085 2.69397 25.5436 1.79617 22.3793 3.65789L11.2073 4.2741Z" fill="#88BF40"/>
<path d="M10.0288 8.55963C9.86238 5.61713 11.5554 2.88554 14.2647 1.72496C16.9735 0.564947 20.1195 1.22447 22.134 3.3752C24.1491 5.5265 24.6022 8.70841 23.2672 11.3357C25.1335 14.1807 24.6849 17.9554 22.2047 20.284C19.7239 22.6126 15.9286 22.8224 13.2068 20.7805C10.4854 18.7387 9.62411 15.0369 11.166 12.0038C10.4894 10.976 10.0972 9.78805 10.0288 8.55963Z" fill="#7CA540"/>
<path d="M22.2004 36.1445H26.8701C30.0936 36.1445 32.7072 38.7581 32.7072 41.9816C32.7072 45.2057 30.0936 47.8188 26.8701 47.8188H22.2004C18.9763 47.8188 16.3633 45.2057 16.3633 41.9816C16.3633 38.7581 18.9763 36.1445 22.2004 36.1445Z" fill="#ECAF4A"/>
<path d="M42.0471 51.321H46.7168C49.9403 51.321 52.5539 53.9346 52.5539 57.1582C52.5539 60.3823 49.9403 62.9953 46.7168 62.9953H42.0471C38.823 62.9953 36.21 60.3823 36.21 57.1582C36.21 53.9346 38.823 51.321 42.0471 51.321Z" fill="#ECAF4A"/>
<path d="M56.0557 40.8142C56.0557 45.9724 51.874 50.1536 46.7163 50.1536C41.5581 50.1536 37.377 45.9724 37.377 40.8142C37.377 35.6566 41.5581 31.4749 46.7163 31.4749C51.874 31.4749 56.0557 35.6566 56.0557 40.8142Z" fill="#FFC018"/>
<path d="M32.7071 55.9908C32.7071 61.149 28.5253 65.3301 23.3677 65.3301C18.2095 65.3301 14.0283 61.149 14.0283 55.9908C14.0283 50.8331 18.2095 46.6514 23.3677 46.6514C28.5253 46.6514 32.7071 50.8331 32.7071 55.9908Z" fill="#FDE700"/>
<path d="M5.85645 45.4839H64.2276V54.8233H5.85645V45.4839Z" fill="#8E662B"/>
<path d="M5.85645 59.4929H64.2276V68.8323H5.85645V59.4929Z" fill="#8E662B"/>
<path d="M21.0327 68.8324V45.4839C21.0327 42.9051 18.9419 40.8142 16.3631 40.8142C13.7837 40.8142 11.6934 42.9051 11.6934 45.4839V68.8324" fill="#A2783B"/>
<path d="M49.0508 68.8324V45.4839C49.0508 42.9051 51.1411 40.8142 53.7205 40.8142C56.2993 40.8142 58.3902 42.9051 58.3902 45.4839V68.8324" fill="#A2783B"/>
<path d="M21.0332 45.4839H23.368V54.8233H21.0332V45.4839Z" fill="#80582F"/>
<path d="M21.0332 59.4929H23.368V68.8323H21.0332V59.4929Z" fill="#80582F"/>
<path d="M58.3906 45.4839H60.7255V54.8233H58.3906V45.4839Z" fill="#80582F"/>
<path d="M58.3906 59.4929H60.7255V68.8323H58.3906V59.4929Z" fill="#80582F"/>
<path d="M15.1963 62.9952H17.5311V65.3301H15.1963V62.9952Z" fill="black"/>
<path d="M15.1963 48.9862H17.5311V51.3211H15.1963V48.9862Z" fill="black"/>
<path d="M52.5537 62.9952H54.8886V65.3301H52.5537V62.9952Z" fill="black"/>
<path d="M52.5537 48.9862H54.8886V51.3211H52.5537V48.9862Z" fill="black"/>
<path d="M44.2401 36.6878C44.5627 36.9779 44.6978 37.4231 44.5907 37.8444C44.4835 38.265 44.1517 38.5911 43.7293 38.6914C43.307 38.7917 42.8635 38.6498 42.5785 38.322L40.9385 39.9831C41.6157 40.6546 42.5254 41.0399 43.4785 41.0593C44.3957 41.0451 45.2673 40.6563 45.8909 39.9831C46.5732 39.3407 46.9597 38.4446 46.9597 37.5069C46.9597 36.5698 46.5732 35.6737 45.8909 35.0312L44.2401 36.6878Z" fill="black"/>
<path d="M67.7229 7.78892C66.1273 7.10261 64.2206 7.74161 62.6285 9.42377C61.8527 8.74202 60.8295 8.41197 59.8023 8.51172C57.2103 8.82809 55.5481 12.1309 56.0161 16.0116C56.0161 16.035 56.0252 16.0567 56.0275 16.0812C55.3994 16.3844 54.8111 16.7646 54.2764 17.2127C53.2828 15.2233 51.2507 13.9652 49.027 13.9635C47.6931 12.1844 45.4603 11.3225 43.2771 11.7455C42.2088 10.2355 40.4834 9.3263 38.6342 9.29894C36.7844 9.27214 35.0333 10.1306 33.9212 11.6093C34.9142 7.65497 32.8261 3.57697 29.0383 2.0698C26.9628 1.24155 24.6393 1.29627 22.6055 2.222C20.9877 0.681209 18.8034 -0.117974 16.5734 0.0142734C14.3446 0.1374 12.2645 1.17144 10.8207 2.87298C8.6973 2.17754 6.38297 2.37876 4.41123 3.42876C1.94243 4.75237 0.323541 7.24911 0.12175 10.0434C-0.0794705 12.8377 1.16434 15.5402 3.41767 17.2047C3.5351 20.2475 5.34551 22.9694 8.10731 24.2526C10.8691 25.5363 14.1171 25.1652 16.5187 23.2926L16.6903 23.3029L16.7627 24.6037C9.9696 25.4662 5.39454 30.4608 5.74796 36.8548C5.95431 39.4752 6.72385 42.021 8.00471 44.3165H5.85683C5.21156 44.3165 4.68941 44.8392 4.68941 45.4839V54.8233C4.68941 55.468 5.21156 55.9907 5.85683 55.9907H10.5265V58.3256H5.85683C5.21156 58.3256 4.68941 58.8483 4.68941 59.493V68.8324C4.68941 69.4771 5.21156 69.9998 5.85683 69.9998H64.228C64.8727 69.9998 65.3954 69.4771 65.3954 68.8324V59.493C65.3954 58.8483 64.8727 58.3256 64.228 58.3256H59.5583V55.9907H64.228C64.8727 55.9907 65.3954 55.468 65.3954 54.8233V45.4839C65.3954 44.8392 64.8727 44.3165 64.228 44.3165H59.4414C59.3126 43.726 59.0909 43.1588 58.7853 42.6366L67.0679 27.8922C68.5636 25.2564 68.5243 22.0192 66.9653 19.4204C67.9645 18.473 68.7546 17.3267 69.2836 16.0555C70.2025 14.1231 70.3444 11.9114 69.6798 9.87752C69.3366 8.94552 68.6309 8.19194 67.7229 7.78892ZM57.0656 18.1663C58.97 17.2759 61.1971 17.4196 62.9711 18.5477C64.745 19.6758 65.8201 21.6316 65.8212 23.7338C65.8184 24.0548 65.7904 24.3745 65.7374 24.6909L63.4738 23.7327L62.5641 25.8828L64.9445 26.8907L60.9144 34.0645L56.1512 32.0352L55.2386 34.1836L59.7715 36.1132L57.2115 40.6723C57.1744 36.5846 54.7512 32.8965 51.0147 31.2394L52.0561 27.7582L55.9848 29.4319L56.8997 27.284L52.7288 25.5083L53.7884 21.9673C54.2906 20.292 55.482 18.9097 57.0656 18.1663ZM23.3682 39.6468V37.312H25.703V41.9817H28.0379V37.4778C30.0928 38.0085 31.5322 39.8589 31.5401 41.9817C31.5384 42.8031 31.3178 43.6091 30.9011 44.3165H22.0839C21.6433 42.2177 20.0871 40.5286 18.0304 39.9193C18.6312 38.7097 19.7263 37.8199 21.0333 37.479V39.6468H23.3682ZM46.4339 26.3525C45.9802 26.7425 45.8952 27.4128 46.2367 27.9042C46.7491 28.6532 47.143 29.4769 47.4041 30.3462C43.8796 30.1068 40.4714 31.6578 38.3378 34.4726C36.2036 37.2875 35.6307 40.9881 36.8129 44.3165H33.4674C34.4507 41.5695 33.6168 38.501 31.3788 36.6291C31.3902 36.2278 31.4113 35.8191 31.3902 35.4394C31.2973 33.4392 30.6777 31.4994 29.5952 29.8149C29.9469 29.2038 30.3545 28.6264 30.8128 28.0894C34.0414 24.354 39.2498 23.1444 43.1967 25.2188C43.6835 25.4747 44.2832 25.3561 44.636 24.9337C44.6885 24.871 44.7358 24.8043 44.7785 24.7342C44.9786 24.4994 45.2653 24.3557 45.5737 24.3352C45.8855 24.3107 46.1939 24.4167 46.4248 24.6282C46.9008 25.0398 46.9652 25.7552 46.569 26.2448L46.4339 26.3525ZM47.8841 58.3256H22.2008V55.9907H47.8841V58.3256ZM47.8841 53.6559H22.2008V46.6514H47.8841V53.6559ZM48.0004 44.3165H39.3615C37.9712 41.4065 38.4261 37.9504 40.5215 35.4987C42.6176 33.0476 45.9608 32.0608 49.0521 32.9814C52.1428 33.9026 54.4012 36.5578 54.8134 39.7568C51.6731 39.1355 48.6234 41.1768 48.0004 44.3165ZM16.3636 41.9817C18.2978 41.9817 19.8659 43.5498 19.8659 45.4839V67.665H12.8614V45.4839C12.8614 43.5498 14.429 41.9817 16.3636 41.9817ZM22.2008 60.6604H47.8841V67.665H22.2008V60.6604ZM50.2189 45.4839C50.2189 43.5498 51.7865 41.9817 53.7212 41.9817C55.6553 41.9817 57.2235 43.5498 57.2235 45.4839V67.665H50.2189V45.4839ZM35.4038 13.6203C35.9773 12.405 37.2005 11.6292 38.5447 11.6292C39.8882 11.6292 41.1115 12.405 41.685 13.6203C41.9483 14.1681 42.5885 14.4224 43.1557 14.2041C44.7643 13.5799 46.5867 14.244 47.4166 15.7568C47.6447 16.1661 48.095 16.3998 48.5607 16.3496L48.7556 16.3268C48.8537 16.3109 48.9523 16.3018 49.0515 16.2983C50.7661 16.3046 52.2231 17.5536 52.4905 19.2477C52.0886 19.8861 51.7745 20.5764 51.5568 21.2987L49.3234 28.7586C49.1313 28.2696 48.905 27.7953 48.6462 27.3387C49.5451 25.8789 49.2544 23.9824 47.9599 22.8583C46.6864 21.741 44.7945 21.6994 43.4732 22.7602C38.3497 20.8073 32.5514 22.3327 29.052 26.5543C28.6797 26.9847 28.3343 27.4379 28.0179 27.911C25.5919 25.6651 22.398 24.4338 19.0929 24.4703L19.0206 23.1655L19.1824 23.1313C19.5575 23.3627 19.9514 23.5628 20.3596 23.7293C22.9578 24.777 25.9128 24.4167 28.1832 22.7745C30.4531 21.1328 31.7208 18.4394 31.5401 15.6434C32.0646 15.1537 32.5223 14.5968 32.9008 13.9869C33.2537 14.004 33.6014 14.0758 33.932 14.1995C34.4986 14.419 35.1387 14.167 35.4038 13.6203ZM28.1661 4.23193C30.0997 5.01002 31.4717 6.76002 31.7659 8.82353C32.06 10.887 31.2318 12.9506 29.5923 14.2383C29.2657 14.4959 29.1004 14.908 29.1597 15.3202C29.443 17.2172 28.7698 19.1314 27.3618 20.4339C25.9533 21.7359 23.9924 22.258 22.1232 21.8276C25.5109 19.4443 26.5689 14.8978 24.5818 11.2633C25.5406 8.9421 25.3678 6.30798 24.1149 4.13161C25.4345 3.67957 26.8727 3.71548 28.1684 4.23193H28.1661ZM16.7005 2.34456C18.7846 2.22542 20.7728 3.22925 21.9135 4.97696C23.0541 6.72468 23.1738 8.94837 22.2264 10.8084C22.0377 11.1812 22.0622 11.6264 22.2914 11.9758C23.3231 13.5445 23.5346 15.5151 22.8603 17.2674C22.1859 19.0202 20.7078 20.3399 18.8906 20.813L18.3479 10.9287L21.3297 7.5991L19.59 6.04178L17.0636 8.85488L14.2408 6.33136L12.6835 8.07052L16.0131 11.0512L16.2177 14.7484L14.6273 13.3239L13.07 15.0637L16.3996 18.0495L16.5597 20.9435C14.702 20.6733 13.0888 19.5247 12.2258 17.858C11.3628 16.1918 11.3553 14.2115 12.2064 12.5384C12.3951 12.1656 12.3706 11.7204 12.142 11.371C10.9962 9.62727 10.8703 7.40415 11.8114 5.54186C12.7525 3.67957 14.6171 2.46313 16.7005 2.3514V2.34456ZM6.42743 19.5601C5.94519 18.656 5.7109 17.6396 5.7491 16.6147C5.76278 16.1986 5.55357 15.807 5.20073 15.5864C3.42223 14.4919 2.36596 12.5293 2.43152 10.4424C2.49707 8.35554 3.67475 6.46303 5.51823 5.48258C6.74893 4.82875 8.1723 4.63608 9.53296 4.9382C9.0262 6.09821 8.79819 7.36026 8.86716 8.62402C8.935 9.83363 9.27189 11.013 9.85275 12.0761C8.27889 15.9062 9.82938 20.3074 13.4565 22.3048C10.7568 23.2328 7.78126 22.0722 6.42401 19.5601H6.42743ZM16.8943 26.9351L17.022 29.2187L19.3569 29.0898L19.2223 26.8052C24.7095 26.9534 28.6353 30.3217 29.0286 35.322C28.332 35.0945 27.6035 34.9783 26.8704 34.9771H22.2008C19.2098 34.9885 16.5557 36.8953 15.5895 39.7255C13.1601 40.0475 11.1918 41.8557 10.6639 44.2492C9.2069 41.9879 8.31822 39.4074 8.07482 36.7283C7.79437 31.5917 11.3702 27.6938 16.8909 26.9351H16.8943ZM7.02425 53.6559V46.6514H10.5265V53.6559H7.02425ZM7.02425 60.6604H10.5265V67.665H7.02425V60.6604ZM63.0606 60.6604V67.665H59.5583V60.6604H63.0606ZM63.0606 53.6559H59.5583V46.6514H63.0606V53.6559ZM67.1346 15.1406C66.7561 16.0567 66.2003 16.89 65.5003 17.5923C63.5924 15.7528 60.9247 14.9297 58.3122 15.3738C58.1218 12.9004 59.047 10.9566 60.0913 10.8289C60.6168 10.7497 61.2159 11.1493 61.762 11.88C61.9855 12.1816 62.3418 12.3554 62.7168 12.3469C63.0931 12.3412 63.4436 12.1542 63.658 11.8447C64.6715 10.3877 65.9928 9.57654 66.8102 9.93395C67.1443 10.1004 67.3968 10.3951 67.5108 10.7508C67.9355 12.2101 67.8015 13.7748 67.1346 15.1406Z" fill="black"/>
</g>
<defs>
<clipPath id="clip0_1506_1047">
<rect width="70" height="70" fill="white"/>
</clipPath>
</defs>
</svg>
