<svg width="112" height="120" viewBox="0 0 112 120" fill="none" xmlns="http://www.w3.org/2000/svg">
<path d="M55.9003 10.0824C83.3993 10.0824 105.692 30.9119 105.692 56.6063C105.692 82.3007 83.3993 103.13 55.9003 103.13C28.4014 103.13 6.10901 82.3007 6.10901 56.6063C6.10901 30.9119 28.4014 10.0824 55.9003 10.0824Z" fill="#F5F7EB"/>
<path d="M104.961 81.5156C109.675 73.4761 112.065 64.0527 111.999 54.6293C111.932 49.8847 111.268 45.14 110.007 40.5272C109.343 38.2207 108.613 35.9802 107.617 33.8056C106.688 31.5651 105.559 29.4563 104.364 27.4135C101.908 23.3278 98.9201 19.4399 95.4679 16.0791C92.0157 12.7183 88.0988 9.75288 83.9163 7.38055C82.8541 6.78748 81.7919 6.19439 80.7297 5.66721C79.6011 5.20592 78.5389 4.61284 77.4103 4.21745C75.1531 3.29488 72.8295 2.57001 70.5059 1.91103C65.7923 0.724869 60.9459 0.0658798 56.0332 -1.52588e-05C51.1868 0.0658798 46.2741 0.658974 41.5605 1.91103C36.8469 3.16309 32.2661 4.94233 28.0837 7.38055C23.9012 9.81877 19.9843 12.7183 16.5321 16.0791C13.0135 19.4399 10.0924 23.2619 7.63602 27.4135C5.17965 31.5651 3.25438 35.9802 1.993 40.5931C0.731619 45.2059 0.00134605 49.9506 0.00134605 54.6952C-0.0650424 64.1845 2.32493 73.6079 7.03851 81.5815C3.32075 73.0807 1.72743 63.7891 2.45771 54.7611C3.12159 45.7331 6.10907 36.9687 11.0218 29.4563C15.9346 22.0099 22.6398 15.6837 30.4736 11.5321C34.3906 9.42338 38.573 7.77594 42.8883 6.65567C47.2035 5.60131 51.6516 5.07413 56.0996 5.07413C60.5476 5.07413 64.9956 5.60131 69.3109 6.65567C73.6261 7.77594 77.8086 9.42338 81.7255 11.5321C89.6257 15.7496 96.2646 22.0099 101.177 29.5222C103.634 33.2784 105.559 37.3641 107.02 41.5815C108.414 45.8649 109.41 50.2801 109.675 54.827C110.273 63.7891 108.679 73.0148 104.961 81.5156Z" fill="white"/>
<path d="M55.7679 120C55.7679 120 34.9883 97.1334 54.7721 83.2949C54.1746 91.2685 54.7057 100.89 55.7679 111.104C55.9007 100.758 56.299 91.1367 57.2948 83.2949C77.0786 97.1334 55.7679 120 55.7679 120Z" fill="#017D03"/>
<path d="M23.4367 108.336C23.4367 108.336 22.3081 81.6474 43.2205 83.229C38.3741 88.2372 33.395 94.9588 28.3495 102.405C34.1917 95.5519 39.8347 89.3575 44.8802 84.6128C50.4568 104.712 23.4367 108.336 23.4367 108.336Z" fill="#017D03"/>
<path d="M7.30408 98.1219C7.30408 98.1219 11.3538 79.2092 25.6937 84.0856C21.3784 86.7215 16.6648 90.5436 11.8185 94.827C17.1959 91.0708 22.2415 87.71 26.5567 85.3377C26.8223 100.428 7.30408 98.1219 7.30408 98.1219Z" fill="#017D03"/>
<path d="M88.0989 108.336C88.0989 108.336 89.2275 81.6474 68.3151 83.229C73.1615 88.2372 78.1406 94.9588 83.1861 102.405C77.3439 95.5519 71.7009 89.3575 66.6554 84.6128C61.1452 104.712 88.0989 108.336 88.0989 108.336Z" fill="#017D03"/>
<path d="M104.298 98.1219C104.298 98.1219 100.248 79.2092 85.9081 84.0856C90.2234 86.7215 94.937 90.5436 99.7833 94.827C94.4058 91.0708 89.3603 87.71 85.0451 85.3377C84.7131 100.428 104.298 98.1219 104.298 98.1219Z" fill="#017D03"/>
<path d="M45.3553 51.6438C45.4695 51.6438 45.5854 51.617 45.6936 51.5605L47.6825 50.5225C48.0411 50.3354 48.18 49.8929 47.9929 49.5343C47.8057 49.1757 47.3631 49.0366 47.0047 49.2238L45.0159 50.2618C44.6573 50.4489 44.5183 50.8914 44.7054 51.25C44.8361 51.5005 45.0912 51.6438 45.3553 51.6438Z" fill="#017D03"/>
<path d="M45.3169 40.9192C45.1297 40.5606 44.6874 40.4215 44.3287 40.6087L42.3399 41.6467C41.9813 41.8338 41.8423 42.2763 42.0294 42.6349C42.1601 42.8853 42.4151 43.0286 42.6793 43.0286C42.7935 43.0286 42.9093 43.0018 43.0176 42.9453L45.0065 41.9073C45.365 41.7202 45.5041 41.2778 45.3169 40.9192Z" fill="#017D03"/>
<path d="M75.4887 67.5762C74.7156 68.2474 73.8359 68.8126 72.8741 69.2561C71.8719 69.7182 70.6906 69.9622 69.4565 69.9622C69.4493 69.9622 69.4421 69.9622 69.435 69.9622C68.1741 69.9585 66.8539 69.7195 66.1501 69.3677C65.9439 69.2646 65.7012 69.2646 65.4951 69.3677C64.7912 69.7195 63.4711 69.9585 62.2107 69.9622C61.028 69.9644 59.8893 69.7423 58.9114 69.3182L60.0709 68.5242C60.272 68.3865 60.3914 68.1579 60.3896 67.9143C60.3876 67.6706 60.2648 67.4439 60.0616 67.3093L58.8885 66.5324C58.5248 66.2916 58.2325 65.9567 58.0432 65.5638L57.1356 63.6807C57.0128 63.4259 56.752 63.2641 56.4715 63.2662C56.1888 63.2679 55.9322 63.4322 55.8123 63.6884L54.9212 65.5939C54.8531 65.7397 54.7706 65.8777 54.6757 66.0062C52.1577 62.7587 51.6098 58.455 51.6098 55.3297C51.6098 52.8628 52.6208 49.1537 55.4704 46.8193C55.7833 46.5629 55.8292 46.1015 55.5729 45.7885C55.3165 45.4756 54.855 45.4298 54.5421 45.6861C54.3729 45.8246 54.2107 45.9684 54.0528 46.115L51.6777 39.6117C51.0999 38.0301 49.8682 36.7739 48.2984 36.1653C46.7284 35.5567 44.9714 35.6543 43.4781 36.4335L43.2753 36.5393L43.4779 34.3318C43.5222 33.8455 43.6698 33.3952 43.9047 33.0298C44.2335 32.5186 44.4067 31.9267 44.4055 31.3188C44.4045 30.4495 44.0401 29.6098 43.4055 29.0151C42.7621 28.4118 41.9217 28.1104 41.0388 28.1667C40.3048 28.2129 39.6221 28.5149 39.0948 29.0059C38.7722 28.7535 38.4014 28.5624 38.0012 28.4502C37.1521 28.212 36.2672 28.3326 35.5096 28.7898C34.4815 29.4101 33.9242 30.5325 33.9877 31.6701C33.2847 31.8225 32.6482 32.2093 32.1915 32.7839C31.6405 33.4763 31.4069 34.3382 31.5337 35.211C31.6588 36.0716 32.1392 36.8507 32.8513 37.3484C33.3498 37.6973 33.9344 37.8937 34.5418 37.9163C34.976 37.9325 35.4297 38.0689 35.8544 38.3109L37.7805 39.4068L37.5778 39.5125C36.0852 40.2915 35.0005 41.6767 34.602 43.3128C34.2034 44.9491 34.5295 46.6783 35.4968 48.057L39.0485 53.1194C38.97 53.1897 38.887 53.2553 38.7996 53.3152L37.6346 54.1128C37.4335 54.2505 37.3141 54.4791 37.3159 54.7228C37.3179 54.9664 37.4409 55.1932 37.644 55.3278L38.817 56.1045C39.1807 56.3453 39.473 56.6804 39.6623 57.0732L40.57 58.9563C40.6921 59.2098 40.9486 59.3707 41.2297 59.3707H41.234C41.5167 59.3691 41.7734 59.2047 41.8932 58.9486L42.3915 57.8829L44.935 61.5087C45.0776 61.7119 45.3046 61.8205 45.5352 61.8205C45.6805 61.8205 45.8272 61.7775 45.9552 61.6877C46.2864 61.4554 46.3664 60.9987 46.1342 60.6675L44.9263 58.9455L46.033 58.3679C46.3916 58.1808 46.5306 57.7383 46.3435 57.3797C46.1563 57.021 45.714 56.8821 45.3553 57.0693L44.0779 57.736L43.177 56.4517C43.3056 56.3083 43.4504 56.1793 43.6106 56.0696L44.7756 55.272C44.9767 55.1343 45.0961 54.9057 45.0943 54.662C45.0923 54.4184 44.9695 54.1916 44.7662 54.0571L43.5932 53.2802C43.2295 53.0394 42.9372 52.7044 42.7479 52.3115L41.8403 50.4284C41.7175 50.1737 41.458 50.0135 41.1762 50.014C40.8935 50.0156 40.6368 50.18 40.517 50.4362L39.8924 51.7717L38.2653 49.4525L39.9865 48.5541C40.3451 48.367 40.484 47.9245 40.2969 47.5659C40.1098 47.2073 39.6674 47.0683 39.3087 47.2555L37.4167 48.2429L36.6958 47.2154C35.9707 46.182 35.7262 44.8858 36.025 43.6593C36.3238 42.4329 37.1367 41.3947 38.2554 40.8109L44.1557 37.7319C45.275 37.1479 46.592 37.0746 47.7689 37.5309C48.9454 37.987 49.8687 38.9285 50.3017 40.114L51.1096 42.3262L49.0807 43.3004C48.716 43.4755 48.5623 43.913 48.7374 44.2777C48.8635 44.5401 49.1253 44.6933 49.3983 44.6933C49.5045 44.6933 49.6125 44.67 49.7148 44.6209L51.6146 43.7087L52.9338 47.3209C50.9059 49.8664 50.145 53.064 50.145 55.3293C50.145 58.7011 50.7528 63.3638 53.5481 66.9412L52.9298 67.3646C52.7287 67.5023 52.6093 67.7309 52.6112 67.9745C52.6131 68.2182 52.736 68.4449 52.9392 68.5795L54.1122 69.3564C54.3557 69.5176 54.5662 69.7219 54.7363 69.9567C53.3992 69.8952 52.1366 69.2215 51.346 68.095L48.097 63.4653C47.8647 63.1341 47.4078 63.0542 47.0768 63.2864C46.7456 63.5188 46.6657 63.9756 46.898 64.3067L50.147 68.9365C51.2541 70.5141 53.0552 71.4268 54.9371 71.4268C55.1162 71.4268 55.2962 71.4182 55.4763 71.4015L55.8652 72.2083C55.9873 72.4618 56.2438 72.6228 56.5249 72.6228H56.5292C56.8119 72.6211 57.0686 72.4568 57.1884 72.2006L57.9828 70.502C58.041 70.5298 58.0996 70.5596 58.1575 70.5863C59.3507 71.1365 60.7442 71.4271 62.1895 71.4271H62.2143C63.5579 71.4231 64.8982 71.1961 65.8224 70.8244C66.7466 71.1961 68.0869 71.4231 69.4311 71.4271C70.8807 71.4299 72.2874 71.1397 73.4874 70.5863C74.5749 70.0849 75.5713 69.4443 76.449 68.6823C76.7543 68.4172 76.787 67.9545 76.5219 67.6491C76.2568 67.3438 75.7942 67.311 75.4887 67.5762ZM39.6273 54.5237C40.2003 54.1314 40.6586 53.5915 40.953 52.9624L41.1907 52.4542L41.4285 52.9478C41.7324 53.578 42.2012 54.1154 42.7846 54.5017L43.0509 54.678L42.7833 54.8612C42.2103 55.2536 41.752 55.7936 41.4576 56.4227L41.22 56.9309L40.9822 56.4373C40.6784 55.8071 40.2095 55.2697 39.6261 54.8833L39.3598 54.707L39.6273 54.5237ZM36.5791 37.0379C35.9509 36.68 35.2653 36.4776 34.5964 36.4526C34.2713 36.4403 33.9582 36.3352 33.6908 36.148C33.3027 35.8768 33.0515 35.4692 32.9833 35.0003C32.9153 34.532 33.041 34.0688 33.3379 33.6957C33.6056 33.3591 33.9909 33.1431 34.4124 33.0809C34.6923 33.5648 35.0898 33.9632 35.5784 34.2417C35.9575 34.4579 36.2992 34.7905 36.5662 35.2036L38.4338 38.0933L36.5791 37.0379ZM40.2081 38.14L37.7965 34.4084C37.4025 33.7987 36.8864 33.3011 36.3038 32.9691C35.9942 32.7925 35.7513 32.5259 35.6016 32.1982C35.2495 31.4276 35.5415 30.4813 36.2664 30.044C37.0756 29.5308 38.2292 29.8542 38.6529 30.71C38.804 30.9997 38.8683 31.3239 38.8386 31.6475C38.7776 32.3133 38.89 33.0191 39.1639 33.6886L40.848 37.8061L40.2081 38.14ZM42.6727 32.2376C42.3108 32.8006 42.0847 33.4788 42.0192 34.1985L41.8242 36.3237L40.5196 33.1341C40.3344 32.6815 40.2576 32.2137 40.2972 31.7814C40.3485 31.2235 40.2487 30.6658 40.0117 30.1587C40.304 29.8481 40.7015 29.6557 41.1313 29.6287C41.6071 29.5986 42.0585 29.7601 42.4038 30.0838C42.7495 30.4078 42.9403 30.8471 42.9408 31.321C42.9413 31.647 42.8487 31.9639 42.6727 32.2376ZM58.0783 68.1133C57.5053 68.5057 57.0469 69.0456 56.7527 69.6747L56.515 70.1829L56.2771 69.6894C55.9733 69.0591 55.5044 68.5218 54.921 68.1355L54.6547 67.9591L54.9224 67.7758C55.4954 67.3834 55.9537 66.8436 56.2481 66.2145L56.4858 65.7063L56.7237 66.1998C57.0275 66.8301 57.4964 67.3675 58.0797 67.7537L58.346 67.9301L58.0783 68.1133Z" fill="#017D03"/>
<path d="M81.1813 48.6886C81.3824 48.5509 81.5018 48.3223 81.5 48.0786C81.498 47.835 81.3752 47.6082 81.172 47.4737L79.9989 46.6968C79.6352 46.456 79.343 46.121 79.1536 45.7281L78.246 43.845C78.1238 43.5915 77.8674 43.4306 77.5862 43.4306C77.5848 43.4306 77.5833 43.4306 77.5819 43.4306C77.2991 43.4323 77.0426 43.5966 76.9227 43.8528L76.3324 45.1152C74.6731 43.9989 72.7557 43.4322 70.6184 43.4304C70.4314 43.4267 68.8491 43.4166 66.9971 44.245C66.963 43.9933 66.9168 43.7395 66.854 43.4859C67.2365 42.0708 67.981 40.773 69.0455 39.7085L69.8668 38.8872C70.1528 38.6012 70.1528 38.1374 69.8668 37.8515C69.5808 37.5655 69.117 37.5655 68.831 37.8515L68.0098 38.6728C67.1622 39.5203 66.4864 40.4938 65.9991 41.5508C64.3321 39.0972 61.1136 38.2733 60.968 38.2371C60.6059 38.1476 60.2337 38.3444 60.1045 38.6946C60.06 38.815 59.2297 41.1217 59.6761 43.5127C59.0189 43.5923 58.3798 43.7294 57.7682 43.9253C57.3829 44.0488 57.1706 44.4611 57.294 44.8462C57.3936 45.1572 57.6814 45.3554 57.9914 45.3554C58.0654 45.3554 58.1407 45.3441 58.215 45.3203C58.8187 45.127 59.4556 44.9998 60.1135 44.9386C60.1669 45.0589 60.2231 45.1786 60.2858 45.2969C60.7297 46.1347 61.3563 46.8074 62.0253 47.3426C62.0519 47.4189 62.0909 47.4922 62.1442 47.5589C63.0029 48.6322 64.2398 49.1767 65.8207 49.1772C65.8215 49.1772 65.8223 49.1773 65.8229 49.1773C65.8235 49.1773 65.8242 49.1772 65.8248 49.1772C67.4055 49.1767 68.6424 48.6323 69.5011 47.559C69.7537 47.2432 69.7025 46.7822 69.3867 46.5295C69.0708 46.2768 68.6099 46.3281 68.3572 46.6439C67.966 47.1328 67.4571 47.4505 66.8162 47.604C66.9222 47.1247 67.0224 46.5194 67.0572 45.8484C68.8813 44.861 70.5684 44.8947 70.5834 44.8949C70.5918 44.8952 70.6002 44.8953 70.6087 44.8953C72.4871 44.8953 74.1632 45.3986 75.6018 46.3906C75.4826 46.5175 75.3503 46.6324 75.2055 46.7317L74.0404 47.5294C73.8393 47.6671 73.7199 47.8957 73.7218 48.1394C73.7237 48.383 73.8466 48.6098 74.0498 48.7444L75.2228 49.5212C75.5865 49.762 75.8788 50.097 76.0682 50.4899L76.9758 52.373C77.0979 52.6265 77.3544 52.7874 77.6355 52.7874H77.6398C77.9225 52.7858 78.1792 52.6214 78.299 52.3653L79.054 50.751C79.6836 52.2145 80.0351 53.8283 80.0351 55.3296C80.0351 59.2414 79.1847 62.6364 77.5757 65.1472C77.3575 65.4877 77.4566 65.9407 77.7973 66.159C77.9196 66.2374 78.0564 66.2748 78.1917 66.2748C78.4329 66.2748 78.6692 66.1557 78.8091 65.9374C80.5695 63.1904 81.5 59.5222 81.5 55.3296C81.5 53.3846 80.9803 51.2767 80.0642 49.4535L81.1813 48.6886ZM65.3305 47.5157C64.3249 47.1414 62.4504 46.254 61.5801 44.6112C60.7092 42.9671 61.029 40.9162 61.2841 39.875C62.2879 40.2464 64.1591 41.1297 65.034 42.7814C65.9045 44.4246 65.5854 46.4741 65.3305 47.5157ZM79.1888 48.2777C78.6157 48.67 78.1573 49.21 77.8632 49.8391L77.6255 50.3473L77.3876 49.8537C77.0838 49.2235 76.6149 48.6861 76.0315 48.2998L75.7652 48.1235L76.0329 47.9402C76.6059 47.5478 77.0643 47.0078 77.3585 46.3788L77.5962 45.8706L77.8341 46.3642C78.1379 46.9945 78.6067 47.5319 79.1901 47.9181L79.4564 48.0945L79.1888 48.2777Z" fill="#017D03"/>
<path d="M52.9393 34.7438L54.1123 35.5206C54.476 35.7614 54.7683 36.0964 54.9576 36.4893L55.8652 38.3724C55.9874 38.6259 56.2438 38.7868 56.525 38.7868H56.5293C56.812 38.7852 57.0686 38.6208 57.1885 38.3647L58.0796 36.4592C58.263 36.067 58.5487 35.7305 58.9059 35.4859L60.0709 34.6881C60.272 34.5504 60.3914 34.3218 60.3895 34.0781C60.3876 33.8345 60.2647 33.6077 60.0615 33.4732L58.8885 32.6963C58.5248 32.4555 58.2325 32.1205 58.0432 31.7276L57.1355 29.8445C57.0128 29.5898 56.7519 29.4273 56.4715 29.4301C56.1888 29.4318 55.9321 29.5961 55.8123 29.8523L54.9212 31.7577C54.7378 32.1499 54.452 32.4864 54.0949 32.7311L52.9299 33.5287C52.7288 33.6664 52.6094 33.895 52.6112 34.1387C52.6131 34.3824 52.736 34.6092 52.9393 34.7438ZM54.9225 33.9397C55.4955 33.5473 55.9539 33.0073 56.2481 32.3783L56.4858 31.8701L56.7237 32.3637C57.0275 32.994 57.4965 33.5314 58.0798 33.9176L58.3461 34.094L58.0784 34.2773C57.5054 34.6696 57.047 35.2096 56.7527 35.8386L56.515 36.3468L56.2771 35.8532C55.9733 35.223 55.5045 34.6856 54.9211 34.2993L54.6548 34.123L54.9225 33.9397Z" fill="#017D03"/>
</svg>
